<svg width="80" height="70" viewBox="0 0 80 70" fill="none" xmlns="http://www.w3.org/2000/svg">
<path d="M13.0821 4.15876C13.0504 4.22999 13.0663 4.32496 13.1296 4.38036C13.1929 4.44368 13.2799 4.45159 13.3591 4.4041C17.5537 1.94273 19.8647 8.04472 20.8461 9.85711C23.8456 15.3972 26.0696 13.7985 27.8503 19.2515C27.874 19.3385 27.9453 19.3939 28.0323 19.4018C28.1194 19.4097 28.2064 19.3702 28.246 19.2989C28.8871 18.1514 29.5756 17.2887 30.28 16.6001C33.2241 13.7114 35.4085 15.231 41.7558 8.73327C46.1483 4.23791 50.0422 0.779327 58.0357 4.98977C58.1069 5.02934 58.194 5.01352 58.2573 4.95812C58.3127 4.90272 58.3285 4.81566 58.2969 4.74443C57.3551 2.62338 54.8937 0.264898 51.6251 0.035381C47.2009 -0.281194 42.6739 1.50745 38.0519 6.01864C33.7702 10.1895 31.7916 11.2342 28.9266 11.2342C24.8982 11.2342 23.3549 6.20859 21.7958 4.07962C19.1682 0.478586 14.5225 1.23044 13.0821 4.15876Z" fill="#F28D38"/>
<path d="M32.7097 27.3952C31.7283 26.9916 30.834 26.4059 30.0742 25.6699C29.2828 24.8943 28.6496 23.9762 28.2223 22.9553C28.1827 22.884 28.1115 22.8286 28.0323 22.8286C27.9453 22.8207 27.8661 22.8682 27.8265 22.9394C27.3675 23.81 26.7818 24.6094 26.0933 25.3058C25.3889 26.026 24.5817 26.6275 23.7032 27.1024C23.6319 27.142 23.5924 27.2132 23.5844 27.2923C23.5844 27.3636 23.624 27.4427 23.6873 27.4823C24.6766 28.1075 25.5472 28.9069 26.2595 29.8328C26.7502 30.4739 27.1617 31.1704 27.4862 31.8985C27.5258 31.9776 27.6049 32.0251 27.6841 32.0251C27.7711 32.033 27.8503 31.9776 27.8819 31.8985C28.3251 30.9488 28.9504 30.1019 29.7418 29.4055C30.5887 28.6536 31.5938 28.1075 32.686 27.8068C32.773 27.783 32.8363 27.7039 32.8443 27.6089C32.8443 27.5139 32.7968 27.4269 32.7097 27.3952Z" fill="#F28D38"/>
<path d="M32.5593 19.3229L32.3694 19.4891C32.2348 19.5999 32.1557 19.7661 32.1478 19.9402C32.1399 20.1144 32.2111 20.2885 32.3298 20.4151C34.0472 22.2038 36.8647 22.4808 38.9146 20.977C39.0095 20.9058 39.0966 20.8425 39.1757 20.7633C40.8457 19.3625 41.3918 17.0673 40.6003 15.0887C40.537 14.9225 40.4104 14.7959 40.2521 14.7326C40.0859 14.6614 39.9118 14.6693 39.7535 14.7405C38.8987 15.1125 38.0756 15.524 37.2684 15.9831C37.8066 16.2284 38.1865 16.7666 38.1865 17.3997C38.1865 18.2545 37.49 18.951 36.6352 18.951C35.7726 18.951 35.0761 18.2545 35.0761 17.3997C35.0761 17.3839 35.0761 17.376 35.0761 17.3602C34.2055 17.9696 33.3587 18.6185 32.5593 19.3229Z" fill="#F28D38"/>
<path d="M21.2101 15.983C20.6641 15.5397 20.1021 15.1282 19.5244 14.7562C19.4136 14.6929 19.279 14.6771 19.1682 14.7246C19.0495 14.7641 18.9546 14.867 18.9229 14.9857C18.3293 16.9881 18.7013 19.3386 19.8805 20.7632C19.9439 20.8424 19.9993 20.9057 20.0626 20.9769C21.4397 22.4252 23.2995 22.2195 24.5104 20.6208C24.6371 20.4546 24.7083 20.2171 24.7004 19.9718C24.7004 19.7185 24.6212 19.489 24.4946 19.3228C23.9327 18.6184 23.347 17.9695 22.7376 17.3601C22.7376 17.3759 22.7376 17.3838 22.7376 17.3996C22.7376 18.2544 22.2548 18.9508 21.6534 18.9508C21.0598 18.9508 20.577 18.2544 20.577 17.3996C20.577 16.7665 20.8382 16.2283 21.2101 15.983Z" fill="#F28D38"/>
<path d="M26.7739 50.1648C21.1627 44.5536 14.5225 34.6764 18.6696 29.3421C19.1999 28.6061 20.1496 27.8384 21.2576 27.3636C21.3051 27.3477 21.3368 27.3002 21.3289 27.2448C21.3209 27.1894 21.2814 27.1499 21.2339 27.1419C18.4559 26.6592 16.2083 24.2611 15.7651 22.1084C14.7441 17.1857 18.4639 11.337 16.3586 6.94448C16.3349 6.897 16.2795 6.86534 16.232 6.86534C16.1766 6.86534 16.1291 6.89699 16.1054 6.95239C14.5304 10.4901 13.2958 15.1675 12.9 17.9613C12.718 19.2197 12.5993 20.209 12.6705 21.2932C12.6705 21.3328 12.6784 21.3645 12.6784 21.3961C10.5099 21.5623 5.6584 21.9264 2.8488 22.1401C1.67748 22.235 0.791066 23.2243 0.838553 24.3957C0.973097 27.7751 1.89908 31.2099 3.56901 34.2886C5.92749 38.6653 10.3595 42.5829 15.7967 44.5852C15.9075 44.6248 16.0262 44.5852 16.0816 44.4823C16.1449 44.3874 16.1212 44.2607 16.0262 44.1816C14.6254 43.0261 12.1244 40.7942 10.2883 38.1825C10.6919 37.6127 11.6179 36.1802 12.0849 35.1592C12.1244 35.0721 12.1086 34.9693 12.0374 34.9059C11.9741 34.8426 11.8712 34.8268 11.7841 34.8743C11.2618 35.1513 10.7473 35.4837 10.2804 35.8319C9.6235 36.3226 8.68961 36.196 8.18309 35.5549C7.87443 35.1671 7.58951 34.7635 7.31251 34.3599C8.15934 33.7346 9.16447 32.8799 9.82136 31.9855C9.86885 31.9143 9.87676 31.8193 9.82928 31.7402C9.78179 31.669 9.69473 31.6294 9.60767 31.6452C8.91912 31.756 8.22266 31.9697 7.59742 32.2071C6.84556 32.4841 6.00664 32.128 5.67423 31.3999C5.4368 30.8538 5.2152 30.2919 5.02525 29.7299C6.75059 29.1205 7.76362 28.4874 8.26223 28.1233C8.33346 28.0679 8.36512 27.9809 8.34137 27.8938C8.32555 27.8068 8.2464 27.7434 8.15934 27.7276C7.70031 27.6722 6.9247 27.6247 5.84043 27.7118C5.049 27.7751 4.3367 27.2132 4.21799 26.4217C4.15467 26.0419 4.10719 25.654 4.07553 25.2662L13.4145 24.554C13.9368 25.7174 14.7916 26.7858 16.1449 27.8147C13.8656 30.6559 13.6915 33.4576 14.5621 36.9874C16.0895 43.1844 21.4792 49.7929 26.0933 53.9321C26.0933 53.9321 26.1012 53.9321 26.1012 53.94C28.7525 56.346 29.544 59.5988 28.7842 62.5508C27.9532 65.7878 25.3177 68.2175 22.0807 68.8348C22.0174 68.8428 21.9699 68.9061 21.9699 68.9694C21.9699 69.0327 22.0174 69.096 22.0807 69.1039C24.3126 69.5867 26.8689 69.1514 28.9266 67.4894C30.0901 66.5555 30.8023 65.3446 31.3247 63.9517C34.3084 56.1481 27.233 50.6239 26.7739 50.1648Z" fill="#F28D38"/>
<path d="M35.1078 27.6327C35.0603 27.6327 35.0286 27.6643 35.0207 27.7118C35.0128 27.7514 35.0445 27.7989 35.084 27.8068C42.943 29.7063 53.7145 27.7514 46.734 7.83886C46.7182 7.79138 46.6707 7.75181 46.6153 7.75181C46.5599 7.74389 46.5124 7.76764 46.4807 7.81512C45.1274 9.99949 45.349 11.9227 45.6655 13.5926V13.6005C47.5017 25.1397 42.6185 27.7514 35.1078 27.6327Z" fill="#F28D38"/>
<path d="M36.4216 60.8575C36.2633 57.2248 37.5533 54.5814 38.9225 52.7848C40.7824 50.3393 44.9216 48.0045 48.8392 40.842C50.7545 37.3201 52.092 33.4658 52.7647 29.3979C54.2131 20.5892 51.815 12.1525 49.1162 6.59657C49.0608 6.47785 48.9184 6.43037 48.7996 6.48577C48.673 6.53325 48.6176 6.67571 48.673 6.79443C51.2927 13.308 52.4956 21.1986 51.2214 28.4086C48.7205 42.5753 40.0543 48.606 38.1232 51.0437C32.7414 57.8342 34.5696 66.3659 40.2363 69.215C40.2996 69.2467 40.3788 69.223 40.4183 69.1596C40.4579 69.0963 40.4421 69.0172 40.3867 68.9776C37.9965 67.1573 36.5719 64.316 36.4216 60.8575Z" fill="#F28D38"/>
<path d="M79.0087 19.4337C79.1987 18.753 79.0483 18.017 78.5972 17.4709C78.1461 16.9169 77.4575 16.6241 76.7532 16.6795C71.1894 17.0989 61.7633 17.835 57.8853 18.1357C57.1968 12.5482 54.9728 7.41967 51.1502 5.65476C51.0948 5.63102 51.0315 5.64686 50.9919 5.68643C50.9444 5.73391 50.9365 5.79723 50.9681 5.84471C55.9463 15.1204 56.5953 25.6148 53.6432 34.9696C53.6274 35.025 53.6511 35.0962 53.6986 35.1279C53.754 35.1595 53.8252 35.1595 53.8727 35.112C56.7931 32.5636 58.2256 26.984 58.1069 21.3015L75.4948 19.9877C75.1307 21.1194 74.7033 22.2275 74.2285 23.3117C73.8248 24.2298 72.8435 24.7521 71.8621 24.578C69.6461 24.1823 68.1502 24.2614 67.4459 24.3406C67.3588 24.3485 67.2876 24.4118 67.2638 24.4989C67.2401 24.5859 67.2638 24.673 67.3351 24.7284C67.9603 25.227 69.464 26.2321 72.2499 27.166C71.8146 27.8941 71.3239 28.6697 70.7778 29.4454C70.1684 30.3239 69.005 30.6246 68.0473 30.1577C66.3853 29.3504 65.1665 29.0259 64.5492 28.8993C64.4701 28.8834 64.383 28.9151 64.3276 28.9863C64.2801 29.0655 64.2801 29.1525 64.3276 29.2317C64.7233 29.8569 65.7443 31.1865 68.0394 32.896C67.5646 33.4342 67.066 33.9486 66.5594 34.4552C65.7601 35.2387 64.4938 35.2862 63.6311 34.566C62.5152 33.6241 61.6367 33.0939 61.146 32.8406C61.0669 32.801 60.9719 32.809 60.9007 32.8644C60.8374 32.9198 60.8057 33.0147 60.8374 33.1018C61.0669 33.8141 61.6842 35.3336 63.1879 37.3914C62.5389 37.89 61.8662 38.3648 61.1777 38.816C60.1805 39.4808 58.835 39.2038 58.1702 38.2066C57.5292 37.241 56.991 36.6395 56.6665 36.315C56.6032 36.2517 56.5161 36.228 56.4291 36.2596C56.3499 36.2913 56.2945 36.3704 56.2945 36.4575C56.2708 37.146 56.342 38.6577 57.1414 41.119C56.4449 41.4594 55.7405 41.7759 55.0203 42.0688C54.5296 42.2666 53.9756 42.2271 53.5166 41.958C53.0575 41.6968 52.7568 41.2378 52.6856 40.7075C52.6143 40.1931 52.5035 39.6628 52.3294 39.1088C52.3136 39.0534 52.2661 39.0138 52.2107 39.0059C52.1474 39.0059 52.092 39.0376 52.0682 39.0851C49.8206 44.079 46.5836 48.4794 42.3573 52.0884H42.3652C39.0491 55.0325 37.8461 59.6228 39.1362 63.6592C40.3708 67.561 44.2251 69.8878 48.1348 69.3179C48.1981 69.31 48.2535 69.2546 48.2535 69.1834C48.2614 69.1201 48.2139 69.0568 48.1506 69.0409C45.064 68.2416 42.5631 65.7723 41.8825 62.3296C41.3443 59.4408 42.199 56.5046 44.9453 54.0511C48.0398 51.3048 50.6991 47.9729 51.4668 46.6275C59.1437 44.5776 65.7918 40.3118 70.7303 34.6768C74.6558 30.221 77.4496 24.9737 79.0087 19.4337Z" fill="#F28D38"/>
</svg>
