<svg width="122" height="48" viewBox="0 0 122 48" fill="none" xmlns="http://www.w3.org/2000/svg">
<path d="M18.112 36.5702C16.3927 36.5702 15.7096 35.7697 15.7096 34.2621V29.3634C15.7096 27.2674 14.7677 26.3722 13.3778 26.3722C12.1062 26.3722 11.235 27.2674 11.235 29.0103V36.5702H10.3868C8.99753 36.5702 8.07872 35.7697 8.07872 34.2621V29.3634C8.07872 27.2674 7.11318 26.3722 5.72358 26.3722C4.49899 26.3722 3.58047 27.338 3.58047 29.0807V36.5702H2.73263C1.43736 36.5702 0.447876 35.7224 0.447876 34.2621V29.3398C0.447876 25.8777 2.26184 23.5696 6.10063 23.5696C7.74928 23.5696 9.04455 24.3231 9.96278 25.548C10.6932 24.3704 12.0828 23.5696 13.6135 23.5696C16.534 23.5696 18.8892 25.336 18.8892 28.9394V36.5702H18.112Z" fill="white"/>
<path d="M26.0967 36.6878C23.4828 36.6878 22.0692 35.2985 22.0692 32.7311V19.6131H22.9644C24.5423 19.6131 25.2255 20.5313 25.2255 21.7325V32.425C25.2255 33.6972 25.8846 34.0973 27.3683 34.0973H28.2164V34.7804C28.2164 36.1464 27.4863 36.6878 26.0967 36.6878Z" fill="white"/>
<path d="M36.1062 21.4266C35.3291 21.756 34.2458 21.9917 33.3977 21.9917H32.3381V21.874C32.8559 21.0732 33.4216 20.2957 34.1042 19.6836C34.858 19.0008 35.4231 18.553 36.3416 18.553C37.1191 18.553 37.6605 18.9064 37.6605 19.754C37.6605 20.4374 37.0718 21.0262 36.1062 21.4266ZM36.5066 31.0358H35.3764C32.9739 31.0358 32.2908 31.6006 32.2908 32.6372C32.2908 33.6261 33.0916 34.2151 34.4812 34.2151C35.8472 34.2151 36.5066 33.5554 36.5066 32.2601V31.0358ZM34.7873 36.7823H34.1515C31.1369 36.7823 29.0645 35.0863 29.0645 32.7549C29.0645 30.4938 30.7131 28.7744 35.3764 28.7744H36.4833V28.6097C36.4833 26.8197 35.6351 26.2779 33.7511 26.2779C31.4663 26.2779 30.1947 27.1494 29.7236 27.7382H29.6059V26.7256C29.6059 25.3124 30.8778 23.6167 34.2222 23.6167C37.0481 23.6167 39.5919 24.9356 39.5919 29.3162V32.237C39.5919 34.9216 37.6135 36.7823 34.7873 36.7823Z" fill="white"/>
<path d="M47.2467 26.231C45.645 26.231 44.6088 27.7853 44.6088 29.8344C44.6088 32.4722 45.9751 34.1912 47.7884 34.1912C49.5548 34.1912 50.3322 32.8726 50.3322 30.5645C50.3322 27.3849 48.9426 26.231 47.2467 26.231ZM47.4117 36.8528C44.0671 36.8528 41.4999 33.9325 41.4999 30.4468C41.4999 26.2783 43.5256 23.5697 47.2233 23.5697C48.4949 23.5697 49.8845 24.4646 50.379 25.5712V19.613H51.3448C52.8521 19.613 53.5113 20.4845 53.5113 21.7564V30.7056C53.5113 34.4033 51.7686 36.8528 47.4117 36.8528Z" fill="white"/>
<path d="M61.9202 26.2076C60.3892 26.2076 59.3296 27.4558 59.2586 28.9161L59.2353 29.3399H60.6485C63.6395 29.3399 64.3223 29.0101 64.3223 28.115C64.3223 26.8434 63.3804 26.2076 61.9202 26.2076ZM61.3311 31.5773H59.2586C59.4943 33.1787 60.9546 34.1912 62.815 34.1912C64.1339 34.1912 65.6883 33.9325 66.7011 32.9903H66.8188V33.9795C66.8188 35.6042 65.7122 36.8524 62.2262 36.8524C59.0703 36.8524 55.985 34.3559 55.985 30.4704C55.985 26.2309 58.5758 23.5697 62.2029 23.5697C64.8404 23.5697 67.2899 25.4538 67.2899 28.492C67.2899 30.8235 65.5235 31.5773 61.3311 31.5773Z" fill="white"/>
<path d="M74.2619 19.9664L77.9123 18.2938V19.0239C77.9123 20.1784 77.5356 20.7436 76.523 21.3321L74.2385 22.651L72.0008 21.3557C71.1057 20.8376 70.5645 20.2018 70.5645 18.9536V18.2704L74.2619 19.9664ZM77.5122 36.5704H71.318C69.8574 36.5704 69.1509 35.8873 69.1509 34.8984C69.1509 33.9322 69.8814 32.7077 71.0823 31.4127L74.2853 27.9267C74.6623 27.5032 75.1568 26.9138 75.3688 26.4901H69.1276V25.5242C69.1276 24.5824 69.8107 23.8522 71.2237 23.8522H76.9938C78.4777 23.8522 78.9722 24.7474 78.9722 25.4775C78.9722 26.4667 78.4541 27.644 77.3475 28.8452L74.1676 32.2839C73.7201 32.7783 73.2491 33.3435 72.9664 33.8619H79.1369V35.0865C79.1369 35.8636 78.3127 36.5704 77.5122 36.5704Z" fill="white"/>
<path d="M14.9916 44.0101C14.6925 44.8328 14.1934 45.9134 13.6949 46.5951H13.4787C13.1461 46.5951 12.9714 46.4785 12.7471 46.1465C12.1402 45.2236 11.3753 43.2703 11.2758 42.0565H11.8742C12.2565 42.0565 12.4977 42.3477 12.5392 42.5884C12.6969 43.4198 12.9218 44.284 13.3955 45.2072C13.8196 44.3676 14.2103 43.1786 14.3765 42.0565H14.8502C15.2325 42.0565 15.3739 42.2227 15.3739 42.5884C15.3739 42.7215 15.2658 43.2618 14.9916 44.0101Z" fill="white"/>
<path d="M19.9541 42.9461C19.339 42.9461 18.9982 43.4782 18.9982 44.251C18.9982 45.149 19.4389 45.6558 20.1036 45.6558C20.6439 45.6558 21.018 45.1742 21.018 44.4589C21.018 43.4031 20.6693 42.9461 19.9541 42.9461ZM20.1454 46.6452C19.6463 46.6452 19.2394 46.3625 19.0148 45.9802V47.9583H18.6655C18.2669 47.9583 17.8843 47.6674 17.8843 47.1858V44.4756C17.8843 42.9878 18.549 41.9569 20.1287 41.9569C21.3174 41.9569 22.1652 43.0378 22.1652 44.1677C22.1652 45.6064 21.4506 46.6452 20.1454 46.6452Z" fill="white"/>
<path d="M24.9502 42.9544C24.31 42.9544 23.9858 43.4865 23.9858 44.226C23.9858 45.1156 24.31 45.6477 25.0498 45.6477C25.6984 45.6477 26.0141 45.1156 26.0141 44.384C26.0141 43.4865 25.6815 42.9544 24.9502 42.9544ZM25.0498 41.957C26.3967 41.957 27.1695 43.0373 27.1695 44.226C27.1695 45.573 26.3967 46.6454 24.9502 46.6454C23.6035 46.6454 22.8304 45.573 22.8304 44.384C22.8304 43.0373 23.6035 41.957 25.0498 41.957Z" fill="white"/>
<path d="M31.6668 46.5454C31.2012 46.5454 30.9103 46.2796 30.9103 45.7971V43.9686C30.9103 43.237 30.5117 42.9461 30.021 42.9461C29.6717 42.9461 29.2147 43.2119 29.2147 44.0016V46.5454H28.8487C28.3253 46.5454 28.0841 46.2545 28.0841 45.7971V40.5603H28.4331C28.9652 40.5603 29.2231 40.8596 29.2231 41.2752V42.555C29.389 42.2893 29.7713 41.9569 30.1954 41.9569C31.351 41.9569 32.0327 42.6467 32.0327 43.9186V46.5454H31.6668Z" fill="white"/>
<path d="M33.6037 48C33.1881 48 32.8225 47.7261 32.8225 47.3105V47.0941L33.4542 47.0523C33.8616 47.0275 34.0027 46.861 34.2439 46.2296C33.6537 45.3397 32.8055 43.1122 32.656 42.0561H33.2463C33.5538 42.0561 33.8362 42.2643 33.8946 42.58C34.0523 43.4448 34.385 44.3759 34.7927 45.1659C35.1581 44.3259 35.5658 42.9711 35.6654 42.0561H36.1475C36.5047 42.0561 36.6712 42.2144 36.6712 42.58C36.6712 43.0543 35.8899 45.099 35.6817 45.5809C34.8505 47.5429 34.4101 48 33.6037 48Z" fill="white"/>
<path d="M39.4641 42.9461C38.899 42.9461 38.4749 43.503 38.4749 44.2013C38.4749 45.2317 38.9153 45.6558 39.5806 45.6558C40.1376 45.6558 40.5365 45.1242 40.5365 44.4008C40.5365 43.3117 40.1458 42.9461 39.4641 42.9461ZM39.4641 46.6452C38.3169 46.6452 37.3525 45.706 37.3525 44.359V40.5603H37.7351C38.1674 40.5603 38.4667 40.8097 38.4667 41.3336V42.6382C38.691 42.3143 39.0733 41.9569 39.6802 41.9569C40.8192 41.9569 41.6922 42.8879 41.6922 44.2095C41.6922 45.5562 40.8274 46.6452 39.4641 46.6452Z" fill="white"/>
<path d="M44.5599 46.6452C43.4545 46.6452 42.5815 45.9136 42.5815 44.6087V42.0564H42.7892C43.4291 42.0564 43.7121 42.3307 43.7121 42.8546V44.5007C43.7121 45.3231 44.1107 45.656 44.6178 45.656C45.0751 45.656 45.3993 45.34 45.3993 44.5754V42.0564H45.5991C46.2471 42.0564 46.5217 42.3307 46.5217 42.8546V44.5337C46.5217 45.93 45.8651 46.6452 44.5599 46.6452Z" fill="white"/>
<path d="M51.8748 44.592H51.4759C50.628 44.592 50.3868 44.7912 50.3868 45.1572C50.3868 45.5065 50.6692 45.7141 51.1601 45.7141C51.642 45.7141 51.8748 45.4817 51.8748 45.0243V44.592ZM51.2679 46.6201H51.0436C49.9794 46.6201 49.248 46.0217 49.248 45.1989C49.248 44.4008 49.8298 43.7939 51.4759 43.7939H51.8666V43.7357C51.8666 43.1037 51.567 42.9127 50.902 42.9127C50.0959 42.9127 49.6467 43.22 49.4805 43.4282H49.4393V43.0707C49.4393 42.5719 49.8879 41.9735 51.0684 41.9735C52.0661 41.9735 52.9639 42.439 52.9639 43.9852V45.0158C52.9639 45.9633 52.2653 46.6201 51.2679 46.6201Z" fill="white"/>
<path d="M58.9406 44.0101C58.6415 44.8328 58.1424 45.9134 57.6438 46.5951H57.4277C57.0951 46.5951 56.9204 46.4785 56.6961 46.1465C56.0892 45.2236 55.3243 43.2703 55.2247 42.0565H55.8232C56.2055 42.0565 56.4467 42.3477 56.4882 42.5884C56.6459 43.4198 56.8708 44.284 57.3445 45.2072C57.7685 44.3676 58.1593 43.1786 58.3255 42.0565H58.7992C59.1815 42.0565 59.3229 42.2227 59.3229 42.5884C59.3229 42.7215 59.2148 43.2618 58.9406 44.0101Z" fill="white"/>
<path d="M61.875 42.8878C61.3347 42.8878 60.9603 43.3282 60.9355 43.8437L60.9273 43.9933H61.4264C62.4819 43.9933 62.7229 43.877 62.7229 43.5613C62.7229 43.1121 62.3902 42.8878 61.875 42.8878ZM61.6671 44.783H60.9355C61.0187 45.3481 61.5342 45.7059 62.191 45.7059C62.6563 45.7059 63.205 45.6145 63.5628 45.2815H63.604V45.6311C63.604 46.2044 63.2132 46.6454 61.9828 46.6454C60.8695 46.6454 59.7804 45.7637 59.7804 44.3925C59.7804 42.896 60.6945 41.957 61.9746 41.957C62.9057 41.957 63.7705 42.6218 63.7705 43.6939C63.7705 44.5172 63.1466 44.783 61.6671 44.783Z" fill="white"/>
<path d="M69.2236 46.5454H67.0372C66.522 46.5454 66.2726 46.3042 66.2726 45.9551C66.2726 45.6146 66.5302 45.1824 66.9543 44.7247L68.0845 43.4949C68.2177 43.3448 68.3924 43.1371 68.4671 42.9879H66.2642V42.6467C66.2642 42.3144 66.5051 42.0562 67.0042 42.0562H69.0404C69.5644 42.0562 69.7388 42.3725 69.7388 42.6301C69.7388 42.9794 69.5559 43.3947 69.1654 43.8188L68.0431 45.0325C67.8854 45.2072 67.7189 45.4064 67.6193 45.5895H69.7972V46.0214C69.7972 46.296 69.5063 46.5454 69.2236 46.5454Z" fill="white"/>
<path d="M72.4903 42.8962C71.9252 42.8962 71.5595 43.4449 71.5595 44.1678C71.5595 45.0991 72.0417 45.706 72.6816 45.706C73.3052 45.706 73.5794 45.2399 73.5794 44.4257C73.5794 43.3036 73.089 42.8962 72.4903 42.8962ZM72.5484 46.6453C71.3682 46.6453 70.4623 45.6146 70.4623 44.3839C70.4623 42.9128 71.1769 41.9569 72.4821 41.9569C72.9307 41.9569 73.4214 42.2726 73.5958 42.6631V40.5603H73.9369C74.4687 40.5603 74.7015 40.8681 74.7015 41.3167V44.4756C74.7015 45.7805 74.0864 46.6453 72.5484 46.6453Z" fill="white"/>
<path d="M78.3258 43.1453C78.1596 43.079 77.9683 43.0127 77.6774 43.0127C77.1789 43.0127 76.9046 43.2867 76.9046 43.9686V46.5454H76.5968C76.098 46.5454 75.782 46.296 75.782 45.8305V43.7688C75.782 42.8714 76.256 42.0153 77.4362 42.0153C78.1263 42.0153 78.3676 42.4058 78.3676 42.7464V43.1453H78.3258Z" fill="white"/>
<path d="M81.4181 44.592H81.0192C80.1713 44.592 79.9301 44.7912 79.9301 45.1572C79.9301 45.5065 80.2125 45.7141 80.7035 45.7141C81.1854 45.7141 81.4181 45.4817 81.4181 45.0243V44.592ZM80.8112 46.6201H80.5869C79.5227 46.6201 78.7914 46.0217 78.7914 45.1989C78.7914 44.4008 79.3732 43.7939 81.0192 43.7939H81.41V43.7357C81.41 43.1037 81.1103 42.9127 80.4453 42.9127C79.6392 42.9127 79.19 43.22 79.0239 43.4282H78.9827V43.0707C78.9827 42.5719 79.4313 41.9735 80.6118 41.9735C81.6094 41.9735 82.5072 42.439 82.5072 43.9852V45.0158C82.5072 45.9633 81.8086 46.6201 80.8112 46.6201Z" fill="white"/>
<path d="M86.6384 44.0101C86.3394 44.8328 85.8402 45.9134 85.3417 46.5951H85.1256C84.7929 46.5951 84.6183 46.4785 84.394 46.1465C83.7871 45.2236 83.0222 43.2703 82.9226 42.0565H83.521C83.9033 42.0565 84.1446 42.3477 84.186 42.5884C84.3438 43.4198 84.5686 44.284 85.0424 45.2072C85.4664 44.3676 85.8572 43.1786 86.0234 42.0565H86.4971C86.8794 42.0565 87.0207 42.2227 87.0207 42.5884C87.0207 42.7215 86.9127 43.2618 86.6384 44.0101Z" fill="white"/>
<path d="M89.1241 46.587C88.2593 46.587 87.7859 46.0967 87.7859 45.1907V42.1562H88.1016C88.6001 42.1562 88.8995 42.4226 88.8995 42.9877V45.0823C88.8995 45.5315 89.0905 45.6726 89.5814 45.6726H89.7891V45.9135C89.7891 46.3957 89.5978 46.587 89.1241 46.587ZM89.0992 41.2003C88.8247 41.3169 88.4424 41.4001 88.1428 41.4001H87.7689V41.3583C87.952 41.0756 88.1515 40.8014 88.3925 40.585C88.6585 40.3443 88.858 40.1863 89.1822 40.1863C89.4564 40.1863 89.648 40.311 89.648 40.6101C89.648 40.8513 89.4398 41.0587 89.0992 41.2003Z" fill="white"/>
<path d="M92.1696 17.393C92.1156 17.8226 92.6883 18.0209 92.9146 17.6514C93.8772 16.0799 95.7111 13.8512 98.5393 13.7826C102.472 13.6871 103.488 16.2005 104.171 17.0215C104.854 17.8425 106.764 18.6929 108.359 17.0089C109.953 15.3252 108.945 9.59975 101.234 9.60355C95.268 9.60647 92.5166 14.6441 92.1696 17.393Z" fill="#333E8A"/>
<path d="M96.2295 6.23156C97.4039 7.52888 97.3043 9.53209 96.0073 10.7067C94.7103 11.8811 92.7067 11.7815 91.5321 10.4842C90.358 9.18746 90.4573 7.18366 91.7544 6.00931C93.0517 4.83524 95.0549 4.93425 96.2295 6.23156Z" fill="#333E8A"/>
<path d="M107.006 9.33849C106.576 9.28446 106.378 9.85718 106.747 10.0835C108.319 11.0461 110.547 12.88 110.616 15.7082C110.711 19.6408 108.198 20.6568 107.377 21.3402C106.556 22.0234 105.706 23.9328 107.39 25.5277C109.073 27.1224 114.799 26.1142 114.795 18.403C114.792 12.4372 109.754 9.68545 107.006 9.33849Z" fill="#FFB600"/>
<path d="M117.564 12.3927C116.267 13.5674 114.264 13.4675 113.089 12.1704C111.915 10.8737 112.014 8.86992 113.312 7.69527C114.608 6.5212 116.612 6.6205 117.787 7.91781C118.961 9.21484 118.862 11.2183 117.564 12.3927Z" fill="#FFB600"/>
<path d="M114.912 24.3989C114.966 23.9693 114.394 23.771 114.167 24.1404C113.205 25.712 111.371 27.9407 108.543 28.0093C104.61 28.1048 103.594 25.5914 102.911 24.7704C102.227 23.9494 100.318 23.0989 98.723 24.7829C97.1284 26.4666 98.1366 32.1921 105.848 32.1883C111.814 32.1854 114.565 27.1477 114.912 24.3989Z" fill="#C20E1A"/>
<path d="M110.361 36.0008C109.186 34.7035 109.286 32.7003 110.583 31.5259C111.88 30.3513 113.884 30.4509 115.058 31.7482C116.233 33.0449 116.133 35.0487 114.836 36.2231C113.539 37.3971 111.535 37.2981 110.361 36.0008Z" fill="#C20E1A"/>
<path d="M100.407 32.5742C100.839 32.606 101.007 32.0233 100.627 31.8166C99.0073 30.9372 96.6858 29.2222 96.4699 26.4013C96.1694 22.4789 98.6265 21.3335 99.4107 20.6083C100.195 19.8832 100.944 17.9319 99.1799 16.427C97.4153 14.9223 91.7503 16.2278 92.156 23.9281C92.4696 29.8858 97.6446 32.3709 100.407 32.5742Z" fill="#00A328"/>
<path d="M88.1797 28.1612C89.414 26.9208 91.4198 26.9155 92.6602 28.1498C93.9005 29.384 93.9058 31.3896 92.6716 32.6302C91.4376 33.8706 89.4318 33.8758 88.1911 32.6416C86.9508 31.4077 86.9455 29.4015 88.1797 28.1612Z" fill="#00A328"/>
<path d="M86.8144 16.7356C87.3582 17.3363 87.3124 18.2645 86.7113 18.8083C86.1106 19.3521 85.183 19.3062 84.6389 18.7055C84.0948 18.1044 84.1412 17.1766 84.7417 16.6325C85.3425 16.0887 86.2706 16.1348 86.8144 16.7356Z" fill="#FFB600"/>
<path d="M101.602 0.298665C101.938 0.670452 101.91 1.24493 101.538 1.58167C101.166 1.91841 100.591 1.88979 100.255 1.518C99.9182 1.14621 99.9468 0.571737 100.319 0.234996C100.69 -0.101744 101.265 -0.073123 101.602 0.298665Z" fill="#333E8A"/>
<path d="M121.018 17.684C121.355 18.0558 121.327 18.6303 120.955 18.967C120.583 19.3037 120.008 19.2751 119.672 18.9033C119.335 18.5315 119.364 17.9571 119.735 17.6203C120.107 17.2836 120.682 17.3122 121.018 17.684Z" fill="#333E8A"/>
<path d="M108.313 5.00475C108.65 5.37654 108.621 5.95101 108.25 6.28775C107.878 6.6245 107.303 6.59587 106.966 6.22409C106.63 5.8523 106.658 5.27782 107.03 4.94108C107.402 4.60434 107.977 4.63296 108.313 5.00475Z" fill="#C20E1A"/>
<path d="M97.882 36.181C98.2187 36.5528 98.1901 37.1273 97.8183 37.464C97.4463 37.8007 96.8718 37.7721 96.535 37.4003C96.1986 37.0285 96.2272 36.4541 96.599 36.1173C96.9708 35.7806 97.5453 35.8092 97.882 36.181Z" fill="#C20E1A"/>
<path d="M89.3146 21.6833C89.6514 22.0551 89.6227 22.6295 89.2509 22.9663C88.8789 23.303 88.3044 23.2744 87.9677 22.9026C87.6312 22.5308 87.6598 21.9564 88.0316 21.6196C88.4034 21.2829 88.9779 21.3115 89.3146 21.6833Z" fill="#C20E1A"/>
<path d="M119.622 25.7933C119.958 26.1651 119.93 26.7396 119.558 27.0763C119.186 27.4131 118.611 27.3844 118.275 27.0127C117.938 26.6409 117.967 26.0664 118.338 25.7296C118.71 25.3929 119.285 25.4215 119.622 25.7933Z" fill="#00A328"/>
<path d="M105.076 37.7377C105.412 38.1095 105.384 38.684 105.012 39.0207C104.64 39.3575 104.066 39.3288 103.729 38.9571C103.392 38.5853 103.421 38.0108 103.793 37.6741C104.165 37.3373 104.739 37.3659 105.076 37.7377Z" fill="#FFB600"/>
</svg>
