<svg width="102" height="48" viewBox="0 0 102 48" fill="none" xmlns="http://www.w3.org/2000/svg">
<path d="M60.2079 2.96447L65.192 0H63.6155L59.035 2.06192L54.3744 0H52.8877L57.9084 2.96447H60.2079ZM62.6277 18.9964C64.8116 18.2959 66.4338 17.0688 66.6522 15.3495C66.6522 12.9235 63.8136 11.9527 61.0191 11.3747C56.9618 10.5664 54.0775 9.89642 53.6265 8.14043C53.5435 7.89546 53.5356 7.77015 53.5356 7.58558C53.6265 5.69074 56.2867 4.51274 58.7206 4.51274C61.1991 4.51274 62.7762 4.83447 64.3532 6.31558L65.7057 5.87475C63.9491 4.30446 61.5598 3.8879 58.7206 3.8879C56.3601 3.8879 54.3451 4.28358 52.8877 4.99308V0H49.2921L40.1306 11.8895H40.0426L30.7044 0H27.1986V14.5638H28.9083V1.84404L39.1756 14.8139H36.0158V29.3783H37.4647V16.6574L47.8551 29.7835H47.8974L58.3758 16.4773V29.3783H61.4435V19.6958H66.8673V33.2786H70.0231V19.6958H76.556V18.9964H62.6277ZM61.4435 18.1588V14.8139H57.8486L54.9089 18.6295C53.6886 18.3129 52.606 17.7563 51.7785 16.9215L50.2906 17.4764C51.2446 18.3975 52.6782 19.0145 54.3479 19.3588L48.6876 26.7034H48.6001L39.363 14.9414L49.8176 1.66229V14.5638H52.8877V11.0197C54.5082 11.6705 56.7304 12.0865 58.9904 12.5996C62.3263 13.3164 63.3175 14.587 63.3175 15.8118C63.3175 16.7567 62.6401 17.587 61.4435 18.1588Z" fill="white"/>
<path d="M0.893433 36.9387H1.62608L3.56834 41.1122L5.53713 36.9387H6.2122V41.5378H5.76008L5.77814 37.3349L3.82968 41.5378H3.30079L1.30096 37.3349L1.34555 41.5378H0.893433V36.9387Z" fill="white"/>
<path d="M7.96973 36.9385H8.42805V41.537H7.96973V36.9385Z" fill="white"/>
<path d="M10.1801 36.9387H10.7665L13.9827 41.0665V36.9387H14.4286V41.5378H13.8168L10.626 37.4105V41.5378H10.1801V36.9387Z" fill="white"/>
<path d="M16.1864 36.9385H16.6447V41.537H16.1864V36.9385Z" fill="white"/>
<path d="M18.6897 40.0227V40.047C18.6897 40.7418 19.2569 41.2069 20.1482 41.2069C21.0468 41.2069 21.5745 40.8248 21.5745 40.2649C21.5745 39.7411 21.2054 39.609 20.4276 39.4685L19.4472 39.2963C18.7145 39.1687 18.3578 38.7872 18.3578 38.1499C18.3578 37.3597 19.0074 36.8195 20.1098 36.8195C21.2314 36.8195 21.8929 37.3535 21.9183 38.2318H21.46C21.4024 37.5888 20.9441 37.2395 20.1222 37.2395C19.3066 37.2395 18.8291 37.5951 18.8291 38.1251C18.8291 38.6077 19.2056 38.7736 19.9755 38.9068L20.8487 39.0604C21.6829 39.2071 22.0583 39.5638 22.0583 40.2463C22.0583 41.1245 21.3776 41.6591 20.1922 41.6591C18.9566 41.6591 18.224 41.0478 18.224 40.0922V40.0227H18.6897Z" fill="white"/>
<path d="M24.8612 37.3598H23.0837V36.9387H27.0964V37.3598H25.3195V41.5373H24.8612V37.3598Z" fill="white"/>
<path d="M28.2872 36.9387H31.8224V37.3665H28.7467V38.9786H31.587V39.4109H28.7467V41.1048H31.8224V41.5378H28.2872V36.9387Z" fill="white"/>
<path d="M33.3003 36.9387H35.505C36.6 36.9387 37.1543 37.3535 37.1543 38.1754C37.1543 38.7799 36.9122 39.1372 36.3579 39.3218C36.8806 39.4047 37.0014 39.6469 37.0651 40.1949C37.1351 40.8057 37.0968 41.2708 37.2881 41.5378H36.7524C36.6125 41.1178 36.6508 40.6595 36.5933 40.1949C36.5363 39.7219 36.2681 39.5633 35.6952 39.5633H33.7598V41.5378H33.3003V36.9387ZM33.7598 37.3665V39.131H35.4537C36.3009 39.131 36.6892 38.8945 36.6892 38.2459C36.6892 37.5635 36.2817 37.3665 35.3961 37.3665H33.7598Z" fill="white"/>
<path d="M39.0524 40.0227V40.047C39.0524 40.7418 39.6186 41.2069 40.511 41.2069C41.4079 41.2069 41.9373 40.8248 41.9373 40.2649C41.9373 39.7411 41.5682 39.609 40.7904 39.4685L39.8099 39.2963C39.0773 39.1687 38.7205 38.7872 38.7205 38.1499C38.7205 37.3597 39.3702 36.8195 40.472 36.8195C41.593 36.8195 42.2562 37.3535 42.2805 38.2318H41.8222C41.7652 37.5888 41.3068 37.2395 40.485 37.2395C39.6694 37.2395 39.1924 37.5951 39.1924 38.1251C39.1924 38.6077 39.5683 38.7736 40.3382 38.9068L41.2114 39.0604C42.0451 39.2071 42.421 39.5638 42.421 40.2463C42.421 41.1245 41.7403 41.6591 40.555 41.6591C39.3194 41.6591 38.5879 41.0478 38.5879 40.0922V40.0227H39.0524Z" fill="white"/>
<path d="M45.2236 37.3598H43.4462V36.9387H47.4588V37.3598H45.6819V41.5373H45.2236V37.3598Z" fill="white"/>
<path d="M48.1415 36.9387H48.6444L50.4913 41.1432L52.3376 36.9387H52.8422L50.778 41.5378H50.1983L48.1415 36.9387Z" fill="white"/>
<path d="M56.1223 41.6593C54.6124 41.6593 53.7087 40.7359 53.7087 39.2378C53.7087 37.7426 54.6124 36.8192 56.1223 36.8192C57.6322 36.8192 58.5421 37.7426 58.5421 39.2378C58.5421 40.7359 57.6322 41.6593 56.1223 41.6593ZM58.0708 39.2378C58.0708 38.0034 57.3381 37.264 56.1223 37.264C54.9059 37.264 54.1733 38.0034 54.1733 39.2378C54.1733 40.4745 54.9059 41.2134 56.1223 41.2134C57.3381 41.2134 58.0708 40.4745 58.0708 39.2378Z" fill="white"/>
<path d="M63.0328 40.0227V40.047C63.0328 40.7418 63.5989 41.2069 64.4907 41.2069C65.3899 41.2069 65.9171 40.8248 65.9171 40.2649C65.9171 39.7411 65.5479 39.609 64.7718 39.4685L63.7908 39.2963C63.0587 39.1687 62.702 38.7872 62.702 38.1499C62.702 37.3597 63.3511 36.8195 64.454 36.8195C65.5739 36.8195 66.2366 37.3535 66.2625 38.2318H65.8036C65.7455 37.5888 65.2872 37.2395 64.4653 37.2395C63.6508 37.2395 63.1722 37.5951 63.1722 38.1251C63.1722 38.6077 63.5481 38.7736 64.3191 38.9068L65.1918 39.0604C66.0272 39.2071 66.4025 39.5638 66.4025 40.2463C66.4025 41.1245 65.7212 41.6591 64.5353 41.6591C63.2998 41.6591 62.5682 41.0478 62.5682 40.0922V40.0227H63.0328ZM65.115 35.532H65.6066L64.7199 36.4746H64.1984L63.3127 35.532H63.8027L64.4591 36.2133L65.115 35.532Z" fill="white"/>
<path d="M67.9557 36.9387H68.4146V39.4555L71.2611 36.9387H71.8983L69.7326 38.8634L71.8983 41.5378H71.3124L69.3894 39.1626L68.4146 40.016V41.5378H67.9557V36.9387Z" fill="white"/>
<path d="M75.0896 41.6593C73.5803 41.6593 72.6766 40.7359 72.6766 39.2378C72.6766 37.7426 73.5803 36.8192 75.0896 36.8192C76.6001 36.8192 77.51 37.7426 77.51 39.2378C77.51 40.7359 76.6001 41.6593 75.0896 41.6593ZM77.0387 39.2378C77.0387 38.0034 76.3055 37.264 75.0896 37.264C73.8733 37.264 73.1412 38.0034 73.1412 39.2378C73.1412 40.4745 73.8733 41.2134 75.0896 41.2134C76.3055 41.2134 77.0387 40.4745 77.0387 39.2378Z" fill="white"/>
<path d="M79.0071 36.9387H79.466V41.1048H82.3582V41.5378H79.0071V36.9387Z" fill="white"/>
<path d="M84.0067 40.0227V40.047C84.0067 40.7418 84.5745 41.2069 85.4657 41.2069C86.3638 41.2069 86.8927 40.8248 86.8927 40.2649C86.8927 39.7411 86.5235 39.609 85.7457 39.4685L84.7658 39.2963C84.0326 39.1687 83.6759 38.7872 83.6759 38.1499C83.6759 37.3597 84.325 36.8195 85.4274 36.8195C86.5484 36.8195 87.2116 37.3535 87.2358 38.2318H86.7775C86.7205 37.5888 86.2616 37.2395 85.4398 37.2395C84.6253 37.2395 84.1472 37.5951 84.1472 38.1251C84.1472 38.6077 84.5226 38.7736 85.2936 38.9068L86.1662 39.0604C87.001 39.2071 87.3764 39.5638 87.3764 40.2463C87.3764 41.1245 86.6957 41.6591 85.5109 41.6591C84.2748 41.6591 83.5421 41.0478 83.5421 40.0922V40.0227H84.0067Z" fill="white"/>
<path d="M90.1791 37.3598H88.4022V36.9387H92.4143V37.3598H90.638V41.5373H90.1791V37.3598Z" fill="white"/>
<path d="M93.0962 36.9387H93.5997L95.4465 41.1432L97.294 36.9387H97.7963L95.7322 41.5378H95.153L93.0962 36.9387Z" fill="white"/>
<path d="M99.0386 36.9385H99.4975V41.537H99.0386V36.9385ZM99.6375 35.5319H100.217L99.4653 36.4751H99.0894L99.6375 35.5319Z" fill="white"/>
<path d="M101.483 40.9769H102V41.7231C102 42.169 101.885 42.3987 101.483 42.5325V42.2384C101.657 42.1498 101.713 42.0222 101.713 41.8117V41.5373H101.483V40.9769Z" fill="white"/>
<path d="M8.67737 44.0813H9.28471L10.8979 47.5453L12.5314 44.0813H13.0919V47.8998H12.7154L12.7323 44.4098L11.1141 47.8998H10.6749L9.01491 44.4098L9.0516 47.8998H8.67737V44.0813Z" fill="white"/>
<path d="M14.4186 44.0813H14.7996V47.5397H17.1996V47.8998H14.4186V44.0813Z" fill="white"/>
<path d="M19.5733 44.0813H20.0125L21.7521 47.8998H21.366L20.8326 46.7201H18.7442L18.204 47.8998H17.8123L19.5733 44.0813ZM20.6627 46.3504L19.7906 44.3997L18.9129 46.3504H20.6627ZM20.0813 42.9135H20.5628L19.9391 43.6958H19.6264L20.0813 42.9135Z" fill="white"/>
<path d="M25.6271 44.4264C26.0504 44.7532 26.2406 45.2663 26.2406 45.9905C26.2406 46.7152 26.0504 47.2289 25.6271 47.5568C25.2359 47.8571 24.7448 47.8994 24.0619 47.8994H22.6716V44.0815H24.0619C24.7448 44.0815 25.2359 44.1244 25.6271 44.4264ZM23.0521 44.4264V47.5348H24.0619C24.6077 47.5348 25.0034 47.4975 25.3149 47.2909C25.6909 47.0432 25.8495 46.6142 25.8495 45.9645C25.8495 45.3301 25.6801 44.9067 25.3149 44.664C24.9932 44.4524 24.5699 44.4264 23.9772 44.4264H23.0521Z" fill="white"/>
<path d="M27.3774 44.0813H30.3114V44.4358H27.7579V45.7741H30.1161V46.1342H27.7579V47.5397H30.3114V47.8998H27.3774V44.0813Z" fill="white"/>
<path d="M31.1521 47.5242L33.9597 44.4356H31.2904V44.0811H34.4885V44.4356L31.6279 47.5242H34.4885V47.8996H31.1521V47.5242ZM33.5787 42.9133H33.9862L33.2518 43.6956H32.8178L32.0829 42.9133H32.4904L33.0351 43.4794L33.5787 42.9133Z" fill="white"/>
<path d="M35.5354 44.0813H38.4694V44.4358H35.9164V45.7741H38.2741V46.1342H35.9164V47.5397H38.4694V47.8998H35.5354V44.0813Z" fill="white"/>
<path d="M43.0802 44.0813H43.5187L45.2584 47.8998H44.8728L44.3394 46.7201H42.2499L41.7114 47.8998H41.3191L43.0802 44.0813ZM44.1695 46.3504L43.2975 44.3997L42.4192 46.3504H44.1695Z" fill="white"/>
<path d="M49.3511 44.4308H47.8756V44.0814H51.207V44.4308H49.7315V47.8999H49.3511V44.4308Z" fill="white"/>
<path d="M52.0901 44.0813H55.0246V44.4358H52.4705V45.7741H54.8282V46.1342H52.4705V47.5397H55.0246V47.8998H52.0901V44.0813ZM54.1306 42.9135H54.5387L53.8032 43.6958H53.3703L52.6348 42.9135H53.0412L53.5859 43.4802L54.1306 42.9135Z" fill="white"/>
<path d="M56.146 44.0813H56.5264V47.5397H58.9259V47.8998H56.146V44.0813Z" fill="white"/>
<path d="M61.3743 47.9999C60.1206 47.9999 59.3705 47.2334 59.3705 45.9911C59.3705 44.7487 60.1206 43.9816 61.3743 43.9816C62.6268 43.9816 63.3831 44.7487 63.3831 45.9911C63.3831 47.2334 62.6268 47.9999 61.3743 47.9999ZM62.992 45.9911C62.992 44.9649 62.3841 44.3514 61.3743 44.3514C60.3645 44.3514 59.7566 44.9649 59.7566 45.9911C59.7566 47.0167 60.3645 47.6302 61.3743 47.6302C62.3841 47.6302 62.992 47.0167 62.992 45.9911Z" fill="white"/>
<path d="M63.9969 44.0813H64.4135L65.9482 47.5713L67.4801 44.0813H67.899L66.1859 47.8998H65.7038L63.9969 44.0813Z" fill="white"/>
<path d="M70.0559 46.2498L68.4111 44.0812H68.8971L70.2461 45.9433L71.6093 44.0812H72.0812L70.4369 46.2498V47.8997H70.0559V46.2498ZM70.6108 42.9134H71.0917L70.468 43.6963H70.1553L70.6108 42.9134Z" fill="white"/>
<path d="M74.8349 44.3514C73.8353 44.3514 73.2228 44.9712 73.2228 45.9906C73.2228 47.0004 73.8353 47.6246 74.7604 47.6246C75.5286 47.6246 76.1139 47.1804 76.2674 46.4664H76.6755C76.5006 47.4073 75.7707 48 74.7722 48C73.6021 48 72.8362 47.2177 72.8362 45.9906C72.8362 44.7482 73.5863 43.9823 74.8411 43.9823C75.8345 43.9823 76.4898 44.4942 76.6112 45.3296H76.2257C76.0772 44.7059 75.5805 44.3514 74.8349 44.3514Z" fill="white"/>
<path d="M77.7272 44.0813H78.1082V45.673H80.5929V44.0813H80.9733V47.8998H80.5929V46.0382H78.1082V47.8998H77.7272V44.0813Z" fill="white"/>
<path d="M84.1196 47.9999C82.8654 47.9999 82.1152 47.2334 82.1152 45.9911C82.1152 44.7487 82.8654 43.9816 84.1196 43.9816C85.3721 43.9816 86.1284 44.7487 86.1284 45.9911C86.1284 47.2334 85.3721 47.9999 84.1196 47.9999ZM85.7373 45.9911C85.7373 44.9649 85.1299 44.3514 84.1196 44.3514C83.1098 44.3514 82.5019 44.9649 82.5019 45.9911C82.5019 47.0167 83.1098 47.6302 84.1196 47.6302C85.1299 47.6302 85.7373 47.0167 85.7373 45.9911Z" fill="white"/>
<path d="M86.7417 44.0813H87.1594L88.693 47.5713L90.2266 44.0813H90.6437L88.9306 47.8998H88.4491L86.7417 44.0813Z" fill="white"/>
<path d="M92.8013 46.2498L91.1565 44.0812H91.6425L92.9909 45.9433L94.3558 44.0812H94.8265L93.1817 46.2498V47.8997H92.8013V46.2498Z" fill="white"/>
</svg>
