<svg width="136" height="63" viewBox="0 0 136 63" fill="none" xmlns="http://www.w3.org/2000/svg">
<path d="M28.063 0H0V62.362H28.063V0Z" fill="#D70C0F"/>
<path d="M31.1805 0H28.0625V62.362H31.1805V0Z" fill="#00469B"/>
<path d="M13.8618 20.5684C13.8618 20.5684 13.439 20.4683 13.3389 20.0708C13.2148 19.5977 13.563 19.3237 13.563 19.3237C13.1401 19.0747 12.6167 18.6753 12.144 18.3027L10.2007 18.6514C8.48291 18.9497 7.98486 20.2446 10.1519 22.9346H7.71094C7.68604 22.3613 7.53711 22.0127 7.38672 21.7637C6.96387 21.0913 6.36572 21.1665 5.81885 21.6396C6.1167 21.8384 6.31689 22.0376 6.51611 22.3364C6.71484 22.6357 6.81494 22.8843 6.83984 22.9844C6.41602 22.6357 5.66895 22.4365 5.37012 22.4614C4.99707 22.4854 4.54883 22.8345 4.54883 23.6064C4.54883 23.6064 5.0708 23.4575 5.69385 23.5566C6.04297 23.6064 6.49072 23.7563 6.49072 23.7563C6.2168 23.8306 5.91797 24.0298 5.71875 24.2295C5.22119 24.7275 5.44482 25.2007 6.04297 25.7236C6.14209 25.3745 6.31689 25.0757 6.71484 24.6777C7.06396 24.3286 7.16309 24.2544 7.31299 24.1797C7.69775 24.2944 8.07373 24.3887 8.43701 24.4644C8.62598 24.9614 8.20898 25.5986 8.20898 25.5986C8.90479 25.7725 9.57568 25.2026 9.60303 24.6558C10.9268 24.8086 12.0181 24.7144 12.7158 24.5034L11.3218 21.3154C11.3218 21.3154 12.9897 21.1665 13.8618 20.5684Z" fill="white"/>
<path d="M6.21654 10.3345L6.98216 11.0806C6.86644 11.5884 6.16624 11.8784 6.16624 11.8784C6.65208 12.4126 7.49242 12.3076 7.83421 11.9097L9.9763 13.9946C10.1501 12.9487 10.5993 12.4507 11.2214 11.9775C9.55345 10.7573 7.36107 9.71143 7.36107 9.71143C7.73509 9.28857 7.88451 8.93945 7.95921 8.64062C8.13353 7.86865 7.66038 7.49561 6.93822 7.4707C7.01341 7.81836 6.98802 8.16748 6.93822 8.4165C6.88841 8.71533 6.83812 8.88965 6.71409 9.13867C6.66429 8.59033 6.26634 7.91846 6.04222 7.71973C5.76829 7.4707 5.19505 7.42041 4.6472 7.94336C4.6472 7.94336 5.14525 8.24268 5.49437 8.71533C5.6931 8.98926 5.91722 9.4375 5.91722 9.4375C5.6682 9.28857 5.31908 9.21338 5.04515 9.21338C4.32347 9.21338 4.14915 9.71143 4.19945 10.5088C4.52318 10.3345 4.89622 10.2344 5.41917 10.2344C5.74339 10.2344 5.99242 10.2598 6.21654 10.3345Z" fill="white"/>
<path d="M25.2167 15.6143H24.2299C24.2397 15.4663 24.246 15.3174 24.246 15.1665C24.246 13.6475 23.6977 12.5762 23.0009 11.7295C23.0009 11.7295 22.4779 12.1284 22.2787 12.3774C22.851 13.0996 23.2748 13.9702 23.2748 15.1914C23.2748 15.3325 23.269 15.4736 23.2577 15.6143H22.1786C22.1786 15.9126 22.5126 16.4336 23.0917 16.6313C22.8329 17.6685 22.3251 18.6226 21.7309 19.3584C20.8691 18.2905 20.1869 16.7646 20.1869 15.1914C20.1869 13.0996 21.3568 12.0283 22.602 10.9824C22.7099 10.8916 22.8769 10.7603 23.0697 10.5933C23.3886 10.8823 23.7216 11.2344 23.997 11.6792C23.997 11.6792 24.6938 11.3315 24.6938 10.7583C24.6938 10.2246 24.1137 10.1123 23.5707 10.1235C24.12 9.55762 24.6689 8.78613 24.6689 7.89453C24.6689 6.97363 24.0956 6.40039 23.2997 6.40039C22.1288 6.40039 22.0048 7.62061 22.0048 7.89453C22.0048 7.89453 22.3026 7.62061 22.6767 7.62061C23.0258 7.62061 23.3739 7.86914 23.3739 8.41748C23.3739 9.09033 22.8261 9.56348 21.83 10.4092C20.685 11.3813 19.2157 12.7002 19.2157 15.1665C19.2157 15.3174 19.2206 15.4663 19.2318 15.6143H18.12C18.12 15.9712 18.5966 16.6445 19.3979 16.7056C19.8368 18.5913 20.9311 19.9585 21.0888 20.1484C20.9267 20.3374 20.5478 20.6694 19.8876 20.6694C19.2377 20.6694 18.6376 20.3545 18.141 19.6982C18.143 19.6245 18.1449 19.5503 18.1449 19.4746C18.1449 17.6562 17.497 15.5645 16.4511 14.3193H18.269C18.2441 13.2734 17.8207 12.3022 16.7748 11.3564H17.8207C17.8207 9.28955 16.352 8.56738 16.227 8.46729C17.1737 8.24316 17.5717 7.49658 17.5717 7.07227H13.015C13.015 7.07227 12.4667 7.69531 11.496 8.09326C11.496 8.7666 11.9941 9.33936 12.4169 9.63721C12.8158 8.99023 13.3139 8.91553 13.5878 8.91553C14.0107 8.91553 14.3598 9.13965 14.3598 9.53857C14.3598 9.8374 14.1601 10.1353 13.8119 10.1353C13.5629 10.1353 13.289 9.98633 12.915 9.98633C11.9941 9.98633 12.1181 10.9072 12.1181 10.9072H13.6869C13.8349 12.0933 10.8466 12.1523 10.7997 14.3906C8.19376 15.0835 6.56485 16.0376 6.56485 16.0376C6.48966 15.4893 6.31583 15.1416 6.1171 14.8926C5.61905 14.2695 5.04581 14.3945 4.57266 14.9175C4.89688 15.0913 5.07071 15.2402 5.31974 15.5396C5.56876 15.8384 5.59366 15.9136 5.71768 16.1626C5.26993 15.8633 4.49796 15.7393 4.19864 15.7886C3.82608 15.8384 3.42667 16.2373 3.47696 16.9844C3.47696 16.9844 3.97501 16.8345 4.47306 16.8345C4.97061 16.8345 5.41983 16.9844 5.41983 16.9844C5.14591 17.0586 4.87198 17.2822 4.69669 17.5073C4.24893 18.0796 4.49796 18.5034 5.14591 18.9766C5.21964 18.6274 5.44474 18.1792 5.71768 17.8555C5.86808 17.6816 6.1171 17.4326 6.29093 17.3325L7.33683 17.1904C7.64981 17.6182 7.43692 18.3286 7.43692 18.3286C8.14884 18.2793 8.61808 17.5522 8.51163 17.0312L11.664 16.6035C12.7499 17.9712 14.5097 18.9063 14.8329 19.0752L13.8857 22.3384C13.4877 23.7075 13.7616 24.7534 14.7831 24.9521C15.4296 25.0771 16.3017 24.8535 16.3017 24.8535L15.1557 27.1445C14.6581 26.8706 14.2851 26.7705 13.9858 26.7705C13.1889 26.7705 12.915 27.3184 13.04 28.0156C13.3876 27.8662 13.6366 27.8164 14.0107 27.8164C14.2348 27.8164 14.4589 27.8164 14.7328 27.8916C14.2099 28.0654 13.6366 28.5884 13.4877 28.8374C13.289 29.1611 13.3627 29.7344 13.9858 30.1572C13.9858 30.1572 14.1347 29.6592 14.559 29.1865C14.808 28.9126 15.1811 28.6133 15.1811 28.6133C15.0819 28.8872 15.0819 29.2603 15.1557 29.5103C15.331 30.1826 15.6786 30.3066 16.5761 30.0825C16.352 29.7832 16.2021 29.5342 16.078 28.9375C16.0028 28.6133 15.9779 28.3643 16.0028 28.1406C16.2157 27.8975 16.5248 27.6152 16.871 27.2993C17.3798 27.4385 17.6469 28.1406 17.6469 28.1406C18.1757 27.6836 18.1239 26.8555 17.7387 26.4854C18.6357 25.5962 19.4887 24.5312 19.4887 23.3594H16.7499C16.7499 23.3594 17.6308 22.5723 17.9921 20.9253C18.4809 21.3843 19.2177 21.6406 19.8378 21.6406C20.4608 21.6406 21.0829 21.3423 21.432 21.0186V22.8115C22.2289 22.8115 22.9008 21.7153 22.328 20.7695C23.623 21.4912 24.4696 20.5703 24.4696 20.0225H22.4731C22.7958 19.6045 23.685 18.3462 24.0668 16.6904C24.7909 16.5723 25.2167 15.9512 25.2167 15.6143ZM13.787 8.34326C13.4877 8.34326 13.2636 8.11816 13.2636 7.64551H14.5341C14.5341 7.99414 14.1347 8.34326 13.787 8.34326Z" fill="white"/>
<path d="M11.0728 10.2847H11.9199C11.9199 9.76172 11.397 9.71191 10.9238 9.5376C10.5249 9.38867 10.1768 9.11475 10.1768 8.41699C10.1768 8.11768 10.251 7.64502 10.6748 7.29688C9.92676 7.29688 9.13086 7.79492 9.13086 8.71582C9.13086 9.46289 9.65381 10.2847 11.0728 10.2847Z" fill="white"/>
<path d="M14.7832 6.25049H16.8003L18.2441 3.58545C17.7466 3.21289 16.6514 3.33691 16.6514 4.18359C16.6514 4.48291 16.7754 4.68164 16.7754 4.93066C16.7754 5.32959 16.4512 5.45361 16.0781 5.45361C15.3315 5.45361 15.0571 4.90576 15.0571 4.45752L15.2812 4.60693C15.6553 4.85596 16.1035 4.55762 16.1035 4.15869C16.1035 3.81055 15.7793 3.58545 15.4805 3.63574L15.1572 3.68555L15.3062 3.36182C15.5303 2.88867 15.1812 2.61475 14.7832 2.39062C14.3853 2.61475 14.0361 2.88867 14.2603 3.36182L14.4092 3.68555L14.0864 3.63574C13.7876 3.58545 13.4634 3.81055 13.4634 4.15869C13.4634 4.55762 13.9111 4.85596 14.2852 4.60693L14.5093 4.45752C14.5093 4.90576 14.2354 5.45361 13.4883 5.45361C13.1152 5.45361 12.7915 5.32959 12.7915 4.93066C12.7915 4.68164 12.9155 4.48291 12.9155 4.18359C12.9155 3.33691 11.8203 3.21289 11.3223 3.58545L12.7661 6.25049H14.7832Z" fill="white"/>
<path d="M18.7676 10.7583C18.7676 11.3315 19.4648 11.6797 19.4648 11.6797C19.7388 11.2314 20.6108 10.3354 21.1089 9.96143C20.4355 9.38867 20.0879 8.96533 20.0879 8.41748C20.0879 7.86963 20.4355 7.62061 20.7847 7.62061C21.1587 7.62061 21.4565 7.89453 21.4565 7.89453C21.4565 7.62061 21.3325 6.40039 20.1626 6.40039C19.3657 6.40039 18.7925 6.97363 18.7925 7.89453C18.7925 8.7915 19.3408 9.56348 19.8887 10.1357C19.3408 10.1113 18.7676 10.2354 18.7676 10.7583Z" fill="white"/>
<path d="M46.5439 14.4873V5.38672H45.2568L42.5918 10.3789L39.9136 5.38672H38.5879V14.4873H39.9395V7.97412L42.5659 12.875L45.1919 7.97412V14.4873H46.5439Z" fill="#FFF"/>
<path d="M49.7153 5.33398H48.207V6.8418H49.7153V5.33398Z" fill="#FFF"/>
<path d="M49.6104 7.80469H48.3105V14.4868H49.6104V7.80469Z" fill="#FFF"/>
<path d="M52.6792 10.2744C52.6792 9.27295 53.3291 8.7793 54.1484 8.7793C55.0195 8.7793 55.6172 9.26025 55.6172 10.5083V14.4863H56.9175V10.3779C56.9175 8.50586 55.9165 7.67383 54.5122 7.67383C53.7061 7.67383 53.0562 8.0249 52.627 8.67529V7.8042H51.3789V14.4863H52.6792V10.2744Z" fill="#FFF"/>
<path d="M59.9854 7.80469H58.6855V14.4868H59.9854V7.80469Z" fill="#FFF"/>
<path d="M60.0884 5.33398H58.5801V6.8418H60.0884V5.33398Z" fill="#FFF"/>
<path d="M64.1714 13.5762C63.0664 13.5762 62.7153 13.1475 62.6631 12.4321H61.3633C61.4282 13.8105 62.4033 14.6162 64.1714 14.6162C65.9395 14.6162 66.9795 13.7451 66.9795 12.5752C66.9795 11.4834 66.1992 10.8853 64.9385 10.6772L63.9634 10.5083C63.1963 10.3779 62.9102 10.1831 62.9102 9.65039C62.9102 9.09131 63.3652 8.71387 64.1841 8.71387C65.1592 8.71387 65.5103 9.14307 65.5625 9.8584H66.8623C66.7974 8.50586 65.8613 7.67383 64.1714 7.67383C62.5332 7.67383 61.6104 8.59717 61.6104 9.71533C61.6104 10.8071 62.3643 11.3662 63.6382 11.5742L64.6265 11.7432C65.3413 11.8604 65.6792 12.0942 65.6792 12.6274C65.6792 13.2515 65.1201 13.5762 64.1714 13.5762Z" fill="#FFF"/>
<path d="M69.1357 12.4067C69.1357 13.7197 69.6299 14.5776 71.2158 14.5776C71.502 14.5776 71.8267 14.5518 72.2036 14.4868V13.3818C71.8789 13.4336 71.6187 13.46 71.3979 13.46C70.6826 13.46 70.436 13.1606 70.436 12.4067V8.90967H72.2036V7.80469H70.436V5.64648L69.1357 5.90674V7.80469H67.7578V8.90967H69.1357V12.4067Z" fill="#FFF"/>
<path d="M76.0015 14.6162C77.4966 14.6162 78.5493 13.8105 78.7056 12.4321H77.3535C77.2886 13.1211 76.7686 13.5635 76.0015 13.5635C75.0132 13.5635 74.4932 12.9521 74.4541 11.4961H78.7705C78.7832 11.4053 78.7832 11.3271 78.7832 11.249C78.7832 8.7793 77.7563 7.67383 76.0015 7.67383C74.1421 7.67383 73.1152 8.7793 73.1152 11.145C73.1152 13.5112 74.1421 14.6162 76.0015 14.6162ZM76.0015 8.72705C76.8203 8.72705 77.3271 9.26025 77.4316 10.4951H74.4673C74.5713 9.26025 75.0781 8.72705 76.0015 8.72705Z" fill="#FFF"/>
<path d="M81.4873 10.4814C81.4873 9.62305 81.9424 8.9082 83.1646 8.9082H83.8662V7.80322C83.6714 7.76416 83.4634 7.73828 83.2686 7.73828C82.5015 7.73828 81.8643 8.06299 81.4355 8.72607V7.80322H80.1875V14.4854H81.4873V10.4814Z" fill="#FFF"/>
<path d="M87.9619 10.6772L86.9868 10.5083C86.2197 10.3779 85.9336 10.1831 85.9336 9.65039C85.9336 9.09131 86.3887 8.71387 87.2075 8.71387C88.1826 8.71387 88.5337 9.14307 88.5859 9.8584H89.8857C89.8208 8.50586 88.8848 7.67383 87.1948 7.67383C85.5566 7.67383 84.6338 8.59717 84.6338 9.71533C84.6338 10.8071 85.3877 11.3662 86.6616 11.5742L87.6499 11.7432C88.3647 11.8604 88.7026 12.0942 88.7026 12.6274C88.7026 13.2515 88.1436 13.5762 87.1948 13.5762C86.0898 13.5762 85.7388 13.1475 85.6865 12.4321H84.3867C84.4517 13.8105 85.4268 14.6162 87.1948 14.6162C88.9629 14.6162 90.0029 13.7451 90.0029 12.5752C90.0029 11.4834 89.2227 10.8853 87.9619 10.6772Z" fill="#FFF"/>
<path d="M92.1592 12.4067C92.1592 13.7197 92.6533 14.5776 94.2393 14.5776C94.5254 14.5776 94.8501 14.5518 95.2271 14.4868V13.3818C94.9023 13.4336 94.6421 13.46 94.4214 13.46C93.7061 13.46 93.4595 13.1606 93.4595 12.4067V8.90967H95.2271V7.80469H93.4595V5.64648L92.1592 5.90674V7.80469H90.7812V8.90967H92.1592V12.4067Z" fill="#FFF"/>
<path d="M100.09 14.4868L102.443 7.80469H101.104L99.3096 13.2256L97.5156 7.80469H96.1113L98.4644 14.4868H100.09Z" fill="#FFF"/>
<path d="M105.848 14.6162C107.72 14.6162 108.748 13.5112 108.748 11.145C108.748 8.7793 107.72 7.67383 105.848 7.67383C103.976 7.67383 102.949 8.7793 102.949 11.145C102.949 13.5112 103.976 14.6162 105.848 14.6162ZM105.848 8.75293C106.901 8.75293 107.396 9.48096 107.396 11.145C107.396 12.8091 106.901 13.5371 105.848 13.5371C104.795 13.5371 104.301 12.8091 104.301 11.145C104.301 9.48096 104.795 8.75293 105.848 8.75293Z" fill="#FFF"/>
<path d="M41.7988 21.5771L43.2026 19.3672H42.085L41.0186 20.7842L39.9526 19.3672H38.8086L40.2129 21.5771H41.7988Z" fill="#FFF"/>
<path d="M41.7725 25.1772L40.7974 25.0083C40.0303 24.8779 39.7441 24.6831 39.7441 24.1504C39.7441 23.5913 40.1992 23.2139 41.0181 23.2139C41.9932 23.2139 42.3442 23.6431 42.3965 24.3584H43.6963C43.6313 23.0059 42.6953 22.1738 41.0054 22.1738C39.3672 22.1738 38.4443 23.0972 38.4443 24.2153C38.4443 25.3071 39.1982 25.8662 40.4722 26.0742L41.4604 26.2432C42.1753 26.3604 42.5132 26.5942 42.5132 27.1274C42.5132 27.7515 41.9541 28.0762 41.0054 28.0762C39.9004 28.0762 39.5493 27.6475 39.4971 26.9321H38.1973C38.2622 28.3105 39.2373 29.1162 41.0054 29.1162C42.7734 29.1162 43.8135 28.2451 43.8135 27.0752C43.8135 25.9834 43.0332 25.3853 41.7725 25.1772Z" fill="#FFF"/>
<path d="M51.0669 28.9868L48.1675 25.4897L50.833 22.3047H49.4155L46.6206 25.6328V19.2363L45.3203 19.4966V28.9868H46.6206V25.6587L49.4155 28.9868H51.0669Z" fill="#FFF"/>
<path d="M54.2271 29.1162C56.0991 29.1162 57.1265 28.0112 57.1265 25.645C57.1265 23.2793 56.0991 22.1738 54.2271 22.1738C52.355 22.1738 51.3281 23.2793 51.3281 25.645C51.3281 28.0112 52.355 29.1162 54.2271 29.1162ZM54.2271 23.2529C55.2803 23.2529 55.7744 23.981 55.7744 25.645C55.7744 27.3091 55.2803 28.0371 54.2271 28.0371C53.1743 28.0371 52.6802 27.3091 52.6802 25.645C52.6802 23.981 53.1743 23.2529 54.2271 23.2529Z" fill="#FFF"/>
<path d="M58.5293 28.9868H59.8296V19.2363L58.5293 19.4966V28.9868Z" fill="#FFF"/>
<path d="M64.0151 29.1162C65.7832 29.1162 66.8232 28.2451 66.8232 27.0752C66.8232 25.9834 66.043 25.3853 64.7822 25.1772L63.8071 25.0083C63.04 24.8779 62.7539 24.6831 62.7539 24.1504C62.7539 23.5913 63.209 23.2139 64.0278 23.2139C65.0029 23.2139 65.354 23.6431 65.4062 24.3584H66.7061C66.6411 23.0059 65.7051 22.1738 64.0151 22.1738C62.377 22.1738 61.4541 23.0972 61.4541 24.2153C61.4541 25.3071 62.208 25.8662 63.4819 26.0742L64.4702 26.2432C65.1851 26.3604 65.5229 26.5942 65.5229 27.1274C65.5229 27.7515 64.9639 28.0762 64.0151 28.0762C62.9102 28.0762 62.5591 27.6475 62.5068 26.9321H61.207C61.272 28.3105 62.2471 29.1162 64.0151 29.1162Z" fill="#FFF"/>
<path d="M72.0498 28.9868V27.8818C71.7246 27.9336 71.4644 27.96 71.2437 27.96C70.5283 27.96 70.2812 27.6606 70.2812 26.9067V23.4097H72.0498V22.3047H70.2812V20.1465L68.9814 20.4067V22.3047H67.6035V23.4097H68.9814V26.9067C68.9814 28.2197 69.4756 29.0776 71.0615 29.0776C71.3477 29.0776 71.6724 29.0518 72.0498 28.9868Z" fill="#FFF"/>
<path d="M76.9116 28.9868L79.2651 22.3047H77.9258L76.1318 27.7256L74.3379 22.3047H72.9336L75.2866 28.9868H76.9116Z" fill="#FFF"/>
<path d="M80.2656 21.5771H81.4097L82.8398 19.3672H81.3838L80.2656 21.5771Z" fill="#FFF"/>
<path d="M81.6812 22.3047H80.3809V28.9868H81.6812V22.3047Z" fill="#FFF"/>
<path d="M84.9321 28.9863V27.3223H83.2681V28.9863H83.918L83.1641 30.9365H84.1001L84.9321 28.9863Z" fill="#FFF"/>
<path d="M97.2422 28.9863H98.5425V24.644C98.5425 22.9023 97.5674 22.1738 96.3843 22.1738C95.5913 22.1738 94.9414 22.5771 94.5381 23.2793C94.1743 22.5122 93.4595 22.1738 92.666 22.1738C91.9902 22.1738 91.4053 22.5122 91.002 23.1362V22.3042H89.7539V28.9863H91.0542V24.6313C91.0542 23.6562 91.6914 23.2793 92.2764 23.2793C92.9131 23.2793 93.498 23.6431 93.498 24.7612V28.9863H94.7983V24.5273C94.7983 23.6562 95.4355 23.2793 96.0205 23.2793C96.6572 23.2793 97.2422 23.6431 97.2422 24.7612V28.9863Z" fill="#FFF"/>
<path d="M101.61 28.9868V19.2363L100.311 19.4966V28.9868H101.61Z" fill="#FFF"/>
<path d="M106.304 21.5771L107.734 19.3672H106.278L105.16 21.5771H106.304Z" fill="#FFF"/>
<path d="M105.459 25.1382C103.978 25.2422 103.055 26.0093 103.055 27.1924C103.055 28.3105 103.874 29.1162 105.122 29.1162C105.928 29.1162 106.786 28.7915 107.345 27.9854V28.9863H108.593V24.7744C108.593 23.1104 107.553 22.1738 105.928 22.1738C104.458 22.1738 103.328 23.1104 103.263 24.5664H104.589C104.641 23.6689 105.174 23.2271 105.915 23.2271C106.721 23.2271 107.293 23.6689 107.293 24.7222V25.021L105.459 25.1382ZM107.293 26.2173C107.293 27.5952 106.253 28.0635 105.395 28.0635C104.797 28.0635 104.354 27.7124 104.354 27.1533C104.354 26.5684 104.758 26.165 105.603 26.1133L107.293 25.9834V26.2173Z" fill="#FFF"/>
<path d="M112.531 29.1167C113.363 29.1167 114.052 28.7397 114.494 27.9468V28.9868H115.742V19.2363L114.442 19.4966V23.1235C113.987 22.4736 113.35 22.1743 112.635 22.1743C111.088 22.1743 109.996 23.2534 109.996 25.6455C109.996 28.0376 110.958 29.1167 112.531 29.1167ZM112.895 23.2666C113.948 23.2666 114.442 23.9946 114.442 25.6455C114.442 27.2969 113.948 28.0249 112.895 28.0249C111.842 28.0249 111.348 27.2969 111.348 25.6455C111.348 23.9946 111.842 23.2666 112.895 23.2666Z" fill="#FFF"/>
<path d="M120.031 22.1738C118.171 22.1738 117.145 23.2793 117.145 25.645C117.145 28.0112 118.171 29.1162 120.031 29.1162C121.526 29.1162 122.579 28.3105 122.735 26.9321H121.383C121.318 27.6211 120.798 28.0635 120.031 28.0635C119.042 28.0635 118.522 27.4521 118.483 25.9961H122.8C122.813 25.9053 122.813 25.8271 122.813 25.749C122.813 23.2793 121.786 22.1738 120.031 22.1738ZM118.497 24.9951C118.601 23.7603 119.107 23.2271 120.031 23.2271C120.85 23.2271 121.357 23.7603 121.46 24.9951H118.497Z" fill="#FFF"/>
<path d="M123.854 23.4097H127.312L123.854 28.0117V28.9868H128.898V27.8818H125.439L128.898 23.2798V22.3047H123.854V23.4097Z" fill="#FFF"/>
<path d="M127.169 21.5771L128.574 19.3672H127.456L126.39 20.7842L125.324 19.3672H124.18L125.583 21.5771H127.169Z" fill="#FFF"/>
<path d="M135.606 25.749C135.606 23.2793 134.579 22.1738 132.824 22.1738C130.964 22.1738 129.938 23.2793 129.938 25.645C129.938 28.0112 130.964 29.1162 132.824 29.1162C134.319 29.1162 135.372 28.3105 135.528 26.9321H134.176C134.111 27.6211 133.591 28.0635 132.824 28.0635C131.835 28.0635 131.315 27.4521 131.276 25.9961H135.593C135.606 25.9053 135.606 25.8271 135.606 25.749ZM131.29 24.9951C131.394 23.7603 131.9 23.2271 132.824 23.2271C133.643 23.2271 134.15 23.7603 134.253 24.9951H131.29Z" fill="#FFF"/>
<path d="M41.1348 36.6738C39.6655 36.6738 38.5347 37.6104 38.4697 39.0664H39.7959C39.8477 38.1689 40.3809 37.7271 41.1216 37.7271C41.9277 37.7271 42.5 38.1689 42.5 39.2222V39.521L40.667 39.6382C39.1846 39.7422 38.2617 40.5093 38.2617 41.6924C38.2617 42.8105 39.0806 43.6162 40.3286 43.6162C41.1348 43.6162 41.9927 43.2915 42.5518 42.4854V43.4863H43.7998V39.2744C43.7998 37.6104 42.7598 36.6738 41.1348 36.6738ZM42.5 40.7173C42.5 42.0952 41.46 42.5635 40.6016 42.5635C40.0039 42.5635 39.5615 42.2124 39.5615 41.6533C39.5615 41.0684 39.9648 40.665 40.8096 40.6133L42.5 40.4834V40.7173Z" fill="#FFF"/>
<path d="M50.7563 34.6465L49.4561 34.9067V36.8047H48.0781V37.9097H49.4561V41.4067C49.4561 42.7197 49.9502 43.5776 51.5361 43.5776C51.8223 43.5776 52.147 43.5518 52.5239 43.4868V42.3818C52.1992 42.4336 51.939 42.46 51.7183 42.46C51.0029 42.46 50.7563 42.1606 50.7563 41.4067V37.9097H52.5239V36.8047H50.7563V34.6465Z" fill="#FFF"/>
<path d="M56.3198 36.6738C54.4604 36.6738 53.4336 37.7793 53.4336 40.145C53.4336 42.5112 54.4604 43.6162 56.3198 43.6162C57.8149 43.6162 58.8677 42.8105 59.0239 41.4321H57.6719C57.6069 42.1211 57.0869 42.5635 56.3198 42.5635C55.3315 42.5635 54.8115 41.9521 54.7725 40.4961H59.0889C59.1016 40.4053 59.1016 40.3271 59.1016 40.249C59.1016 37.7793 58.0747 36.6738 56.3198 36.6738ZM54.7856 39.4951C54.8896 38.2603 55.3965 37.7271 56.3198 37.7271C57.1387 37.7271 57.6455 38.2603 57.75 39.4951H54.7856Z" fill="#FFF"/>
<path d="M55.2651 33.8672H54.1211L55.5254 36.0771H57.1113L58.5151 33.8672H57.3975L56.3311 35.2842L55.2651 33.8672Z" fill="#FFF"/>
<path d="M60.5059 43.4868H61.8057V33.7363L60.5059 33.9966V43.4868Z" fill="#FFF"/>
<path d="M66.1079 36.6738C64.2358 36.6738 63.209 37.7793 63.209 40.145C63.209 42.5112 64.2358 43.6162 66.1079 43.6162C67.98 43.6162 69.0073 42.5112 69.0073 40.145C69.0073 37.7793 67.98 36.6738 66.1079 36.6738ZM66.1079 42.5371C65.0552 42.5371 64.561 41.8091 64.561 40.145C64.561 38.481 65.0552 37.7529 66.1079 37.7529C67.1611 37.7529 67.6553 38.481 67.6553 40.145C67.6553 41.8091 67.1611 42.5371 66.1079 42.5371Z" fill="#FFF"/>
<path d="M72.7119 42.2256L70.918 36.8047H69.5137L71.8667 43.4868H73.4917L75.8452 36.8047H74.5059L72.7119 42.2256Z" fill="#FFF"/>
<path d="M79.8882 36.0771L81.3184 33.8672H79.8623L78.7441 36.0771H79.8882Z" fill="#FFF"/>
<path d="M79.5381 42.2256L77.7441 36.8047H76.3398L78.8359 43.8896L78.7842 44.0068C78.5112 44.748 78.3159 45.0601 77.666 45.0601C77.4448 45.0601 77.1719 45.0337 76.8599 44.9819V46.0869C77.2109 46.1519 77.5229 46.1909 77.7959 46.1909C78.9272 46.1909 79.5771 45.5669 80.1099 44.0591L82.6714 36.8047H81.332L79.5381 42.2256Z" fill="#FFF"/>
<path d="M86.0747 37.7529C86.8418 37.7529 87.375 38.208 87.4917 39.1963H88.8442C88.6489 37.4673 87.6479 36.6738 86.0747 36.6738C84.2026 36.6738 83.1758 37.7793 83.1758 40.145C83.1758 42.5112 84.2026 43.6162 86.0747 43.6162C87.5962 43.6162 88.6489 42.8232 88.8442 41.0942H87.4917C87.375 42.082 86.8418 42.5371 86.0747 42.5371C85.022 42.5371 84.5278 41.8091 84.5278 40.145C84.5278 38.481 85.022 37.7529 86.0747 37.7529Z" fill="#FFF"/>
<path d="M93.3813 36.6743C92.6016 36.6743 91.9775 36.9995 91.5483 37.6235V33.7363L90.248 33.9966V43.4868H91.5483V39.2749C91.5483 38.2734 92.1982 37.7798 93.0176 37.7798C93.8887 37.7798 94.4863 38.2607 94.4863 39.5088V43.4868H95.7866V39.3784C95.7866 37.5063 94.7856 36.6743 93.3813 36.6743Z" fill="#FFF"/>
<path d="M100.09 36.6738C98.2183 36.6738 97.1914 37.7793 97.1914 40.145C97.1914 42.5112 98.2183 43.6162 100.09 43.6162C101.962 43.6162 102.99 42.5112 102.99 40.145C102.99 37.7793 101.962 36.6738 100.09 36.6738ZM100.09 42.5371C99.0376 42.5371 98.5435 41.8091 98.5435 40.145C98.5435 38.481 99.0376 37.7529 100.09 37.7529C101.144 37.7529 101.638 38.481 101.638 40.145C101.638 41.8091 101.144 42.5371 100.09 42.5371Z" fill="#FFF"/>
<path d="M106.694 42.2256L104.9 36.8047H103.496L105.849 43.4868H107.475L109.828 36.8047H108.488L106.694 42.2256Z" fill="#FFF"/>
<path d="M113.519 42.2256L111.725 36.8047H110.32L112.816 43.8896L112.765 44.0068C112.492 44.748 112.296 45.0601 111.646 45.0601C111.425 45.0601 111.152 45.0337 110.84 44.9819V46.0869C111.191 46.1519 111.503 46.1909 111.776 46.1909C112.908 46.1909 113.558 45.5669 114.09 44.0591L116.652 36.8047H115.312L113.519 42.2256Z" fill="#FFF"/>
</svg>
