<svg width="59" height="48" viewBox="0 0 59 48" fill="none" xmlns="http://www.w3.org/2000/svg">
<g clip-path="url(#clip0_16547_1054)">
<path d="M1.32537 40.4605C1.11167 39.9606 0.902523 39.6107 0.702468 39.4084C0.502412 39.2085 0.265983 39.0903 0 39.054V38.7858C0.0363737 38.7858 0.122761 38.7813 0.261436 38.7722C0.400111 38.7631 0.500139 38.7586 0.563793 38.7586C0.795676 38.7586 1.03438 38.7767 1.2799 38.8131C1.52542 38.8495 1.76413 38.9244 1.99601 39.0403C2.22789 39.1562 2.44841 39.3266 2.65983 39.5493C2.86898 39.772 3.05539 40.0765 3.2168 40.4605L5.34012 45.4687L8.175 38.8926H8.84564L4.98775 47.8659H4.45124L1.32991 40.4605H1.32537Z" fill="white"/>
<path d="M9.68678 38.8949H11.4282V45.9913C11.4282 46.3935 11.485 46.7161 11.5964 46.9616C11.7078 47.207 11.9647 47.3297 12.3671 47.3297H12.5012V47.7319H10.8939C10.6621 47.7319 10.4665 47.7046 10.312 47.6523C10.1551 47.5978 10.0301 47.5046 9.93685 47.3706C9.84364 47.2365 9.77772 47.0593 9.74362 46.8343C9.70724 46.6116 9.68906 46.3299 9.68906 45.9913V38.8949H9.68678Z" fill="white"/>
<path d="M20.3557 41.7466C20.1852 40.9354 19.876 40.3105 19.4236 39.8788C18.9735 39.4448 18.3756 39.2289 17.6344 39.2289C17.223 39.2289 16.8388 39.2948 16.4819 39.4289C16.1249 39.563 15.8112 39.7925 15.543 40.1174C15.2747 40.4423 15.0656 40.8763 14.9132 41.4172C14.7609 41.958 14.6859 42.6328 14.6859 43.4463C14.6859 43.9553 14.7405 44.4484 14.8473 44.9256C14.9542 45.4028 15.1269 45.8254 15.3634 46.1912C15.5998 46.5571 15.9044 46.8502 16.275 47.0684C16.6455 47.2865 17.0979 47.3956 17.6344 47.3956C18.2505 47.3956 18.8234 47.232 19.3486 46.907C19.876 46.5821 20.2988 46.1049 20.6216 45.48L21.09 45.8413C20.6694 46.5821 20.1556 47.1274 19.5486 47.4751C18.9416 47.8228 18.1687 47.9977 17.2298 47.9977C16.525 47.9977 15.8976 47.8818 15.3474 47.6501C14.7973 47.4183 14.3358 47.0979 13.9607 46.6866C13.5856 46.2753 13.2992 45.7936 13.1036 45.2414C12.9081 44.687 12.8081 44.0894 12.8081 43.4463C12.8081 42.7669 12.9195 42.1352 13.1423 41.5512C13.3651 40.9672 13.6743 40.4582 14.0675 40.0242C14.4608 39.5902 14.9269 39.2494 15.4679 38.9994C16.009 38.7495 16.5955 38.6245 17.2298 38.6245C18.0687 38.6245 18.7461 38.7336 19.2599 38.9517C19.7737 39.1699 20.1556 39.4221 20.4057 39.7084C20.5853 39.9402 20.6876 40.2401 20.7148 40.6059C20.7421 40.9718 20.7558 41.3513 20.7558 41.7444H20.3534L20.3557 41.7466Z" fill="white"/>
<path d="M28.8989 38.8949V39.4971H26.0982V47.7319H24.3568V39.4971H23.4065C22.9336 39.4971 22.5585 39.6152 22.2812 39.8515C22.0038 40.0879 21.8652 40.506 21.8652 41.1036H21.4628V39.9652C21.4628 39.8311 21.4787 39.6993 21.5105 39.5698C21.5424 39.4403 21.5992 39.3266 21.6856 39.2289C21.7697 39.1312 21.8856 39.0494 22.0334 38.9881C22.1812 38.9267 22.3699 38.8949 22.6017 38.8949H28.8989Z" fill="white"/>
<path d="M35.644 43.3145C35.644 42.0102 35.4212 41.0036 34.9734 40.2946C34.5255 39.5857 33.8958 39.2312 33.0842 39.2312C32.2726 39.2312 31.6429 39.5857 31.2018 40.2946C30.7608 41.0036 30.538 42.0102 30.538 43.3145C30.538 44.6188 30.7585 45.6255 31.2018 46.3344C31.6452 47.0434 32.2703 47.4001 33.0842 47.4001C33.8981 47.4001 34.5255 47.0456 34.9734 46.3344C35.4189 45.6255 35.644 44.6188 35.644 43.3145ZM28.6648 43.3145C28.6648 42.6533 28.7694 42.0375 28.9808 41.4671C29.1899 40.8968 29.49 40.4014 29.8788 39.9811C30.2675 39.5607 30.7313 39.2312 31.2723 38.9903C31.8134 38.7495 32.4181 38.629 33.0887 38.629C33.7594 38.629 34.3641 38.7495 34.9051 38.9903C35.4462 39.2312 35.9077 39.5607 36.2919 39.9811C36.6761 40.4014 36.9739 40.8968 37.1831 41.4671C37.3922 42.0375 37.4991 42.6556 37.4991 43.3145C37.4991 43.9735 37.3945 44.5916 37.1831 45.1619C36.9739 45.7345 36.6761 46.2299 36.2919 46.648C35.9077 47.0684 35.4462 47.3978 34.9051 47.6387C34.3641 47.8796 33.7594 48 33.0887 48C32.4181 48 31.8134 47.8796 31.2723 47.6387C30.7313 47.3978 30.2675 47.0684 29.8788 46.648C29.49 46.2276 29.1899 45.7322 28.9808 45.1619C28.7716 44.5916 28.6648 43.9758 28.6648 43.3145Z" fill="white"/>
<path d="M41.5115 39.4312C41.4047 39.4312 41.2978 39.4357 41.191 39.4448C41.0841 39.4539 40.9909 39.4675 40.9091 39.4857C40.8113 39.5039 40.7227 39.5175 40.6408 39.5266V43.1555H41.4456C41.6593 43.1555 41.8753 43.1237 42.089 43.0623C42.3027 43.0009 42.4982 42.8964 42.6709 42.7533C42.846 42.6101 42.9847 42.4192 43.0938 42.1784C43.2006 41.9375 43.2552 41.6421 43.2552 41.2945C43.2552 40.9468 43.2006 40.6537 43.0938 40.4173C42.9869 40.181 42.8483 39.9879 42.6778 39.8425C42.5073 39.6948 42.3208 39.5902 42.114 39.5289C41.9094 39.4675 41.707 39.4357 41.5115 39.4357M41.1773 43.6895H40.6408V47.7341H38.8858V40.6378C38.8858 40.2356 38.829 39.9129 38.7176 39.6675C38.6062 39.4221 38.3493 39.2994 37.9469 39.2994H37.8128V38.8972H41.5115C41.7252 38.8972 41.9617 38.9063 42.2208 38.9244C42.48 38.9426 42.7437 38.9835 43.0119 39.0449C43.2802 39.1085 43.5416 39.1949 43.7963 39.3062C44.0509 39.4175 44.2759 39.5652 44.4737 39.747C44.6692 39.9311 44.8284 40.1538 44.9488 40.4173C45.0693 40.6809 45.1307 40.9945 45.1307 41.3604C45.1307 41.7262 45.0648 42.0102 44.9375 42.2647C44.8079 42.5192 44.6374 42.7328 44.4282 42.9078C44.2191 43.0828 43.9849 43.2214 43.7258 43.3304C43.4666 43.4372 43.212 43.5236 42.9619 43.5849L44.3691 45.9277C44.5396 46.214 44.7011 46.448 44.8579 46.6298C45.0148 46.8139 45.1648 46.957 45.3058 47.0638C45.449 47.1706 45.5808 47.2501 45.7013 47.2979C45.8218 47.3479 45.9309 47.3797 46.0287 47.3978V47.7319C45.9582 47.7682 45.8309 47.7978 45.6468 47.825C45.4626 47.8523 45.2876 47.8659 45.1171 47.8659C44.8852 47.8659 44.6601 47.8341 44.4396 47.7728C44.2214 47.7114 44.0054 47.6024 43.7963 47.4524C43.5871 47.3001 43.3757 47.1002 43.1665 46.8502C42.9574 46.6003 42.7391 46.2912 42.5164 45.9254L41.1773 43.6895Z" fill="white"/>
<path d="M46.6652 38.8949H48.4066V45.9913C48.4066 46.3935 48.4612 46.7161 48.5749 46.9616C48.6863 47.207 48.9431 47.3297 49.3455 47.3297H49.4797V47.7319H47.8724C47.6405 47.7319 47.445 47.7046 47.2904 47.6523C47.1335 47.5978 47.0085 47.5046 46.9153 47.3706C46.8221 47.2365 46.7562 47.0593 46.7221 46.8343C46.6857 46.6116 46.6675 46.3299 46.6675 45.9913V38.8949H46.6652Z" fill="white"/>
<path d="M51.9872 44.6938H55.0312L53.549 41.199L51.9872 44.6938ZM57.4864 46.0458C57.6478 46.4389 57.8433 46.7502 58.0752 46.9843C58.3071 47.2161 58.5754 47.3501 58.88 47.3865V47.7205C58.8095 47.7387 58.7072 47.7546 58.5776 47.7682C58.4481 47.7819 58.3344 47.7887 58.2366 47.7887C58.0229 47.7887 57.7911 47.7682 57.5478 47.7273C57.3023 47.6864 57.0613 47.6069 56.8249 47.4865C56.5884 47.366 56.3657 47.1911 56.1542 46.9638C55.9451 46.7366 55.7587 46.4298 55.5973 46.0458L55.2881 45.296H51.7053L50.6004 47.7341H49.9298L53.8832 38.8949H54.4856L57.4864 46.0458Z" fill="white"/>
<path d="M16.7228 2.10188C16.7046 2.1405 16.7115 2.18822 16.7433 2.21776C16.7751 2.2473 16.8229 2.25185 16.8592 2.2314C18.9825 0.983905 20.1465 4.06968 20.6444 4.98542C22.163 7.78489 23.2883 6.97822 24.1863 9.73452C24.1999 9.77542 24.2363 9.80496 24.2795 9.80951C24.3227 9.81405 24.3636 9.79133 24.3863 9.75497C24.7114 9.17781 25.057 8.73925 25.4139 8.39159C26.9052 6.93505 28.0055 7.70309 31.2155 4.41962C33.4366 2.14732 35.4053 0.399925 39.4428 2.52679C39.4792 2.54725 39.5246 2.54043 39.5542 2.51089C39.5837 2.48135 39.5928 2.43818 39.5769 2.39955C39.0995 1.32929 37.8537 0.138611 36.2032 0.0204516C33.9663 -0.138609 31.677 0.763493 29.34 3.04261C27.178 5.15357 26.1755 5.67847 24.7273 5.67847C22.6927 5.67847 21.9129 3.14259 21.124 2.06325C19.7964 0.245409 17.448 0.627155 16.7206 2.10415" fill="#F49800"/>
<path d="M26.6415 13.8428C26.1482 13.6406 25.6958 13.3452 25.3116 12.9703C24.9092 12.5794 24.5909 12.1136 24.3727 11.6001C24.3568 11.5614 24.3181 11.5342 24.2772 11.5342C24.234 11.5342 24.1954 11.5546 24.1749 11.5933C23.943 12.0318 23.6475 12.434 23.2997 12.7885C22.9427 13.1498 22.5358 13.4565 22.0902 13.6974C22.0561 13.7156 22.0334 13.7519 22.0334 13.7906C22.0334 13.8292 22.0516 13.8656 22.0834 13.886C22.5813 14.2041 23.0223 14.6063 23.3838 15.0767C23.6316 15.3994 23.8407 15.7493 24.0044 16.1197C24.0226 16.1583 24.0612 16.1856 24.1044 16.1856C24.1476 16.1856 24.1863 16.1606 24.2045 16.1219C24.425 15.6402 24.7432 15.2108 25.1411 14.8586C25.5707 14.4791 26.08 14.2041 26.6279 14.0519C26.6733 14.0383 26.7052 13.9996 26.7074 13.9519C26.7097 13.9042 26.6824 13.861 26.6392 13.8428" fill="#F49800"/>
<path d="M26.5665 9.76406L26.471 9.84814C26.4051 9.90721 26.3641 9.98902 26.3619 10.0776C26.3573 10.1663 26.3914 10.2526 26.4528 10.3162C27.3212 11.2206 28.7466 11.3638 29.7833 10.6003C29.8287 10.5662 29.8719 10.5321 29.9151 10.4957C30.7563 9.78451 31.0336 8.62564 30.6335 7.62583C30.6017 7.54403 30.5358 7.47813 30.4562 7.44632C30.3743 7.41223 30.2834 7.4145 30.2038 7.44859C29.7765 7.63719 29.3582 7.84851 28.949 8.07802C29.2218 8.20072 29.4127 8.47567 29.4127 8.79379C29.4127 9.2278 29.0603 9.58 28.6261 9.58C28.1919 9.58 27.8396 9.2278 27.8396 8.79379C27.8396 8.78697 27.8396 8.78016 27.8396 8.77334C27.3962 9.0801 26.9689 9.41185 26.5642 9.76633" fill="#F49800"/>
<path d="M20.8308 8.07801C20.5534 7.85306 20.267 7.64628 19.976 7.45995C19.9214 7.42587 19.8555 7.41905 19.7964 7.44177C19.7373 7.46449 19.6918 7.51221 19.6736 7.57356C19.3758 8.58474 19.5645 9.77315 20.1601 10.4957C20.1897 10.5321 20.2215 10.5662 20.2534 10.6003C20.9467 11.3342 21.8902 11.232 22.4994 10.4208C22.5631 10.3367 22.5995 10.2162 22.5972 10.0913C22.5972 9.96629 22.5585 9.84813 22.4926 9.76633C22.2107 9.41185 21.9129 9.0801 21.6037 8.77334C21.6037 8.78015 21.6037 8.78697 21.6037 8.79379C21.6037 9.2278 21.3582 9.58 21.0558 9.58C20.7535 9.58 20.508 9.2278 20.508 8.79379C20.508 8.47567 20.6398 8.20072 20.8308 8.07801Z" fill="#F49800"/>
<path d="M23.6452 25.3475C20.8081 22.5116 17.4503 17.524 19.5463 14.8267C19.8146 14.4541 20.2943 14.0632 20.8535 13.8269C20.8785 13.8156 20.8922 13.7906 20.8899 13.7656C20.8876 13.7383 20.8672 13.7179 20.8399 13.7133C19.4395 13.4702 18.3028 12.2568 18.0777 11.1729C17.5617 8.68472 19.444 5.73073 18.3778 3.50843C18.3665 3.48343 18.3415 3.46753 18.3142 3.46753C18.2869 3.46753 18.2619 3.48343 18.2505 3.50843C17.4548 5.299 16.8319 7.65991 16.6296 9.07328C16.5387 9.70953 16.4796 10.2094 16.5159 10.7571C16.5159 10.773 16.5182 10.7911 16.5205 10.807C15.4225 10.8911 12.9741 11.0752 11.5487 11.1842C10.9576 11.2297 10.5097 11.7319 10.5325 12.3227C10.6007 14.0314 11.0667 15.7629 11.9124 17.3194C13.1059 19.5327 15.3452 21.5096 18.0959 22.523C18.1505 22.5435 18.2119 22.523 18.2414 22.4707C18.271 22.4208 18.2596 22.3571 18.2141 22.3185C17.5049 21.7345 16.2386 20.6052 15.3088 19.285C15.5157 18.9964 15.9817 18.2738 16.2181 17.758C16.2386 17.7148 16.2272 17.6648 16.1931 17.633C16.159 17.6012 16.109 17.5944 16.0658 17.6148C15.7976 17.7535 15.5384 17.9239 15.3042 18.0988C14.9701 18.3465 14.4995 18.2852 14.2403 17.958C14.0857 17.7625 13.9402 17.5603 13.8038 17.3558C14.2312 17.04 14.7405 16.6105 15.0701 16.156C15.0974 16.1197 15.0974 16.072 15.0746 16.0333C15.0519 15.9947 15.0064 15.9765 14.9632 15.9833C14.6177 16.0424 14.263 16.1492 13.9471 16.2674C13.5674 16.4083 13.1423 16.231 12.9763 15.8584C12.8536 15.5834 12.7444 15.3016 12.6467 15.0153C13.5174 14.7063 14.0312 14.3859 14.2835 14.2019C14.3199 14.1746 14.3358 14.1291 14.3244 14.086C14.3131 14.0428 14.2767 14.011 14.2312 14.0042C13.9993 13.9746 13.606 13.9496 13.0582 13.9928C12.6558 14.0246 12.2989 13.7429 12.2375 13.3452C12.2079 13.1498 12.1829 12.9544 12.1647 12.7589L16.8865 12.3999C17.1525 12.9884 17.5844 13.5293 18.2664 14.0473C17.1161 15.4857 17.0275 16.8991 17.4662 18.6806C18.2392 21.8118 20.9626 25.1521 23.2951 27.2448C23.2951 27.2448 23.2951 27.2448 23.2951 27.2471C24.6364 28.4651 25.0388 30.1057 24.6523 31.5986C24.2317 33.2369 22.8995 34.4639 21.265 34.773C21.2332 34.7798 21.2082 34.807 21.2082 34.8411C21.2082 34.8752 21.2309 34.9048 21.265 34.9116C22.3949 35.1524 23.6861 34.9343 24.725 34.0935C25.3138 33.6209 25.673 33.0119 25.9367 32.3052C27.444 28.3651 23.868 25.5702 23.6384 25.3407" fill="#F49800"/>
<path d="M27.8555 13.9633C27.8327 13.9633 27.8145 13.9792 27.81 14.0019C27.8077 14.0246 27.8214 14.0451 27.8441 14.0496C31.8179 15.0108 37.2604 14.0201 33.7321 3.96289C33.723 3.93789 33.7003 3.91971 33.673 3.91517C33.6457 3.9129 33.6207 3.92426 33.6048 3.94698C32.9205 5.05132 33.0342 6.02159 33.191 6.86461C33.191 6.86461 33.191 6.86915 33.191 6.87143C34.1208 12.6999 31.6497 14.0223 27.8532 13.961" fill="#F49800"/>
<path d="M28.5216 30.751C28.442 28.915 29.0922 27.5811 29.7856 26.6699C30.7245 25.4361 32.8182 24.2545 34.796 20.637C35.7668 18.8601 36.4419 16.9104 36.7807 14.854C37.5127 10.4048 36.301 6.14429 34.937 3.33573C34.9074 3.27665 34.837 3.24938 34.7756 3.27665C34.7142 3.30392 34.6869 3.37436 34.7119 3.43571C36.0396 6.726 36.6443 10.7093 36.0009 14.3564C34.7392 21.5141 30.3562 24.5613 29.3809 25.7928C26.6574 29.224 27.5849 33.5346 30.4494 34.9706C30.4812 34.9866 30.5221 34.9752 30.5403 34.9457C30.5585 34.9138 30.5517 34.8752 30.5221 34.8525C29.315 33.9322 28.5943 32.4961 28.5193 30.751" fill="#F49800"/>
<path d="M50.048 9.82087C50.1458 9.47548 50.0662 9.10509 49.8388 8.82787C49.6115 8.55065 49.2637 8.40068 48.9068 8.42795C46.0992 8.64155 41.3297 9.01193 39.3723 9.16417C39.0245 6.34198 37.8992 3.75156 35.9668 2.85855C35.9395 2.84492 35.9077 2.85173 35.885 2.87446C35.8645 2.89718 35.86 2.92899 35.8736 2.95626C38.3902 7.63946 38.7199 12.9453 37.2263 17.6694C37.2172 17.6989 37.2263 17.733 37.2558 17.7489C37.2831 17.7671 37.3172 17.7648 37.3399 17.7421C38.8176 16.4537 39.5405 13.6315 39.4837 10.7639L48.2725 10.0981C48.0861 10.6684 47.8724 11.2297 47.6314 11.7796C47.4268 12.2431 46.9335 12.5067 46.4356 12.4181C45.3149 12.2204 44.5601 12.259 44.2032 12.2999C44.16 12.3045 44.1214 12.3363 44.11 12.3795C44.0986 12.4226 44.1123 12.4681 44.1486 12.4954C44.4646 12.7476 45.2239 13.2566 46.6311 13.7269C46.4129 14.0951 46.1628 14.4882 45.8878 14.8813C45.5786 15.3244 44.992 15.4743 44.5078 15.238C43.669 14.829 43.0529 14.6677 42.7414 14.6041C42.6982 14.595 42.655 14.6131 42.63 14.6495C42.605 14.6859 42.605 14.7336 42.63 14.7699C42.8324 15.0881 43.3484 15.7584 44.5078 16.6241C44.2646 16.8945 44.0168 17.1558 43.7599 17.4103C43.3552 17.8103 42.7141 17.833 42.2799 17.4671C41.7139 16.99 41.2706 16.7241 41.0228 16.5946C40.9841 16.5741 40.9341 16.5787 40.9 16.6082C40.8659 16.6378 40.8523 16.6832 40.8659 16.7264C40.9841 17.0899 41.2956 17.8534 42.0549 18.8941C41.7252 19.1464 41.3865 19.3872 41.0387 19.6167C40.534 19.9508 39.8543 19.8122 39.5178 19.3077C39.1927 18.8192 38.9199 18.5147 38.7562 18.3511C38.7244 18.3193 38.6789 18.3102 38.638 18.3261C38.5971 18.342 38.5698 18.3806 38.5675 18.4238C38.5539 18.7737 38.5925 19.5372 38.9972 20.7779C38.6448 20.9483 38.2856 21.1096 37.9219 21.2573C37.6741 21.3573 37.3945 21.3391 37.1626 21.2051C36.9307 21.071 36.7761 20.837 36.7398 20.5734C36.7057 20.3121 36.6465 20.0417 36.5624 19.7622C36.5533 19.7349 36.5283 19.7144 36.4988 19.7122C36.4692 19.7122 36.4419 19.7258 36.4306 19.7531C35.2939 22.2753 33.6548 24.4976 31.5201 26.32C29.8447 27.8106 29.2377 30.1261 29.8879 32.1666C30.5108 34.1413 32.459 35.316 34.4368 35.0275C34.4709 35.0229 34.4959 34.9956 34.4959 34.9616C34.4959 34.9275 34.4755 34.8979 34.4437 34.8888C32.8841 34.4844 31.6202 33.2346 31.2769 31.494C31.0041 30.0352 31.4337 28.5537 32.825 27.3107C34.3868 25.9246 35.7327 24.2409 36.1191 23.5614C39.9998 22.5253 43.3598 20.3689 45.8582 17.524C47.8428 15.2698 49.2546 12.6226 50.0412 9.82087" fill="#F49800"/>
</g>
<defs>
<clipPath id="clip0_16547_1054">
<rect width="58.88" height="48" fill="white"/>
</clipPath>
</defs>
</svg>
