<svg width="80" height="70" viewBox="0 0 80 70" fill="none" xmlns="http://www.w3.org/2000/svg"><path d="M13.082 4.159a.196.196 0 00.048.221c.063.064.15.072.23.024 4.194-2.461 6.505 3.64 7.486 5.453 3 5.54 5.224 3.942 7.004 9.395a.202.202 0 00.182.15.221.221 0 00.214-.103c.641-1.148 1.33-2.01 2.034-2.699 2.944-2.889 5.128-1.369 11.476-7.867C46.148 4.238 50.042.78 58.036 4.99c.07.04.158.024.221-.032a.195.195 0 00.04-.214c-.942-2.12-3.403-4.48-6.672-4.709-4.424-.316-8.951 1.472-13.573 5.984-4.282 4.17-6.26 5.215-9.125 5.215-4.029 0-5.572-5.025-7.131-7.154-2.628-3.601-7.273-2.85-8.714.079zM32.71 27.395a8.354 8.354 0 01-2.636-1.725 8.281 8.281 0 01-1.852-2.715c-.04-.071-.11-.126-.19-.126a.215.215 0 00-.206.11 10.01 10.01 0 01-1.733 2.367 9.967 9.967 0 01-2.39 1.796.238.238 0 00-.119.19c0 .072.04.15.103.19a9.976 9.976 0 012.572 2.35c.491.642.903 1.338 1.227 2.066.04.08.119.127.198.127a.198.198 0 00.198-.127 7.57 7.57 0 011.86-2.492 7.381 7.381 0 012.944-1.6.221.221 0 00.158-.197c0-.095-.047-.182-.134-.214zM32.56 19.323l-.19.166a.621.621 0 00-.222.451.663.663 0 00.182.475 5.02 5.02 0 006.585.562c.095-.071.182-.134.26-.214A4.987 4.987 0 0040.6 15.09a.617.617 0 00-.348-.356.608.608 0 00-.498.008 25.96 25.96 0 00-2.486 1.242c.539.245.919.784.919 1.417a1.555 1.555 0 01-3.11 0v-.04c-.871.61-1.718 1.259-2.518 1.963zM21.21 15.983a19.002 19.002 0 00-1.686-1.227.407.407 0 00-.356-.031.386.386 0 00-.245.26c-.594 2.003-.222 4.354.958 5.778.063.08.118.143.182.214 1.377 1.448 3.236 1.242 4.447-.356.127-.166.198-.404.19-.65 0-.253-.079-.482-.205-.648a23.438 23.438 0 00-1.757-1.963v.04c0 .854-.483 1.55-1.085 1.55-.593 0-1.076-.696-1.076-1.55 0-.633.261-1.172.633-1.417z" fill="#F28D38"/><path d="M26.774 50.165c-5.611-5.611-12.252-15.489-8.104-20.823.53-.736 1.48-1.504 2.588-1.978a.107.107 0 00.07-.12.118.118 0 00-.094-.102c-2.778-.483-5.026-2.88-5.469-5.034-1.02-4.922 2.699-10.771.594-15.164a.15.15 0 00-.127-.079.136.136 0 00-.127.087c-1.575 3.538-2.81 8.215-3.205 11.01-.182 1.258-.3 2.247-.23 3.331 0 .04.008.072.008.103-2.168.166-7.02.53-9.83.744a2.176 2.176 0 00-2.01 2.256 22.795 22.795 0 002.731 9.893c2.358 4.376 6.79 8.294 12.228 10.296.11.04.23 0 .285-.103.063-.095.04-.221-.056-.3-1.4-1.156-3.902-3.388-5.738-6 .404-.57 1.33-2.002 1.797-3.023a.217.217 0 00-.048-.253.213.213 0 00-.253-.032c-.522.277-1.037.61-1.504.958a1.52 1.52 0 01-2.097-.277 20.889 20.889 0 01-.87-1.195c.846-.625 1.851-1.48 2.508-2.375a.229.229 0 00.008-.245.22.22 0 00-.221-.095c-.689.111-1.385.325-2.01.562a1.536 1.536 0 01-1.924-.807 21.403 21.403 0 01-.649-1.67c1.726-.61 2.739-1.243 3.237-1.607a.215.215 0 00.08-.23c-.016-.086-.096-.15-.183-.165-.459-.056-1.234-.103-2.319-.016a1.52 1.52 0 01-1.622-1.29 13.95 13.95 0 01-.142-1.156l9.338-.712c.523 1.163 1.378 2.232 2.73 3.26-2.278 2.842-2.452 5.644-1.582 9.173 1.528 6.197 6.917 12.806 11.531 16.945 0 0 .008 0 .008.008 2.652 2.406 3.443 5.659 2.683 8.61a8.58 8.58 0 01-6.703 6.285c-.064.008-.111.071-.111.134 0 .064.047.127.11.135a8.142 8.142 0 006.847-1.615c1.163-.934 1.875-2.144 2.398-3.537 2.983-7.804-4.092-13.328-4.551-13.787zM35.108 27.633c-.048 0-.08.031-.087.079a.087.087 0 00.063.095c7.859 1.9 18.63-.056 11.65-19.968a.129.129 0 00-.119-.087.134.134 0 00-.134.063c-1.354 2.184-1.132 4.108-.816 5.778v.008c1.837 11.539-3.047 14.15-10.557 14.032z" fill="#F28D38"/><path d="M36.422 60.858c-.159-3.633 1.131-6.277 2.5-8.073 1.86-2.446 6-4.78 9.917-11.943a36.327 36.327 0 003.926-11.444c1.448-8.809-.95-17.245-3.649-22.801a.237.237 0 00-.316-.111.226.226 0 00-.127.308c2.62 6.514 3.823 14.405 2.548 21.615-2.5 14.166-11.167 20.197-13.098 22.635-5.382 6.79-3.553 15.322 2.113 18.171a.142.142 0 00.182-.055.135.135 0 00-.031-.182c-2.39-1.82-3.815-4.662-3.965-8.12z" fill="#F28D38"/><path d="M79.009 19.434a2.17 2.17 0 00-.412-1.963 2.158 2.158 0 00-1.844-.791c-5.564.419-14.99 1.155-18.868 1.456-.688-5.588-2.912-10.716-6.735-12.481a.145.145 0 00-.158.031c-.048.048-.055.111-.024.159 4.978 9.275 5.627 19.77 2.675 29.125a.151.151 0 00.056.158c.055.032.126.032.174-.016 2.92-2.548 4.353-8.128 4.234-13.81l17.388-1.314a35.064 35.064 0 01-1.267 3.324 2.175 2.175 0 01-2.366 1.266c-2.216-.396-3.712-.317-4.416-.237a.21.21 0 00-.182.158.211.211 0 00.071.23c.625.498 2.129 1.503 4.915 2.437a36.478 36.478 0 01-1.472 2.28 2.17 2.17 0 01-2.73.712c-1.663-.808-2.882-1.132-3.499-1.259a.227.227 0 00-.221.087.23.23 0 000 .246c.395.625 1.416 1.954 3.711 3.664a34.38 34.38 0 01-1.48 1.56c-.799.783-2.065.83-2.928.11-1.116-.942-1.994-1.472-2.485-1.725a.23.23 0 00-.245.023.22.22 0 00-.064.238c.23.712.847 2.232 2.35 4.29-.648.498-1.32.973-2.01 1.424a2.17 2.17 0 01-3.007-.61c-.64-.965-1.179-1.567-1.504-1.891a.22.22 0 00-.237-.055.216.216 0 00-.135.198c-.023.688.048 2.2.847 4.661-.696.34-1.4.657-2.12.95a1.707 1.707 0 01-1.504-.111 1.68 1.68 0 01-.831-1.25 9.758 9.758 0 00-.357-1.6.145.145 0 00-.118-.102c-.064 0-.119.032-.143.08-2.247 4.993-5.484 9.393-9.71 13.002h.007c-3.316 2.944-4.519 7.535-3.229 11.571a8.207 8.207 0 008.999 5.659.137.137 0 00.119-.135c.007-.063-.04-.126-.103-.142-3.087-.8-5.588-3.269-6.269-6.711-.538-2.89.317-5.825 3.063-8.279 3.095-2.746 5.754-6.078 6.522-7.424a38.985 38.985 0 0019.263-11.95 39.105 39.105 0 008.279-15.243z" fill="#F28D38"/></svg>