<svg width="122" height="48" viewBox="0 0 122 48" fill="none" xmlns="http://www.w3.org/2000/svg"><path d="M18.112 36.57c-1.72 0-2.402-.8-2.402-2.308v-4.899c0-2.096-.942-2.99-2.332-2.99-1.272 0-2.143.894-2.143 2.637v7.56h-.848c-1.39 0-2.308-.8-2.308-2.308v-4.899c0-2.096-.966-2.99-2.355-2.99-1.225 0-2.144.965-2.144 2.708v7.49h-.847c-1.296 0-2.285-.849-2.285-2.309V29.34c0-3.462 1.814-5.77 5.653-5.77 1.648 0 2.944.753 3.862 1.978.73-1.178 2.12-1.978 3.65-1.978 2.921 0 5.276 1.766 5.276 5.37v7.63h-.777zM26.097 36.688c-2.614 0-4.028-1.39-4.028-3.957V19.613h.895c1.578 0 2.262.918 2.262 2.12v10.692c0 1.272.659 1.672 2.142 1.672h.848v.683c0 1.366-.73 1.908-2.12 1.908zM36.106 21.427c-.777.329-1.86.565-2.708.565h-1.06v-.118c.518-.8 1.084-1.578 1.766-2.19.754-.683 1.32-1.131 2.238-1.131.777 0 1.319.353 1.319 1.201 0 .683-.59 1.272-1.555 1.673zm.4 9.609h-1.13c-2.402 0-3.085.565-3.085 1.601 0 .99.8 1.578 2.19 1.578 1.366 0 2.026-.66 2.026-1.955v-1.224zm-1.719 5.746h-.636c-3.014 0-5.087-1.696-5.087-4.027 0-2.261 1.65-3.98 6.312-3.98h1.107v-.165c0-1.79-.848-2.332-2.732-2.332-2.285 0-3.556.871-4.027 1.46h-.118v-1.012c0-1.414 1.272-3.11 4.616-3.11 2.826 0 5.37 1.32 5.37 5.7v2.921c0 2.685-1.978 4.545-4.805 4.545zM47.247 26.231c-1.602 0-2.638 1.554-2.638 3.603 0 2.638 1.366 4.357 3.18 4.357 1.766 0 2.543-1.318 2.543-3.627 0-3.18-1.39-4.333-3.085-4.333zm.165 10.622c-3.345 0-5.912-2.92-5.912-6.406 0-4.169 2.026-6.877 5.723-6.877 1.272 0 2.662.895 3.156 2.001v-5.958h.966c1.507 0 2.166.872 2.166 2.143v8.95c0 3.697-1.742 6.147-6.1 6.147zM61.92 26.208c-1.53 0-2.59 1.248-2.661 2.708l-.024.424h1.413c2.991 0 3.674-.33 3.674-1.225 0-1.272-.942-1.907-2.402-1.907zm-.589 5.37H59.26c.235 1.6 1.696 2.613 3.556 2.613 1.319 0 2.873-.259 3.886-1.2h.118v.989c0 1.624-1.107 2.872-4.593 2.872-3.156 0-6.241-2.496-6.241-6.382 0-4.24 2.59-6.9 6.218-6.9 2.637 0 5.087 1.884 5.087 4.922 0 2.331-1.767 3.085-5.959 3.085zM74.262 19.966l3.65-1.672v.73c0 1.154-.376 1.72-1.389 2.308l-2.284 1.319L72 21.356c-.895-.518-1.437-1.154-1.437-2.402v-.684l3.698 1.696zm3.25 16.604h-6.194c-1.46 0-2.167-.683-2.167-1.672 0-.966.73-2.19 1.931-3.485l3.203-3.486c.377-.424.872-1.013 1.084-1.437h-6.241v-.966c0-.942.683-1.672 2.096-1.672h5.77c1.484 0 1.978.895 1.978 1.625 0 .99-.518 2.167-1.624 3.368l-3.18 3.439c-.448.494-.919 1.06-1.202 1.578h6.17v1.224c0 .778-.823 1.484-1.624 1.484zM14.992 44.01c-.3.823-.799 1.903-1.297 2.585h-.216c-.333 0-.508-.117-.732-.448-.607-.923-1.372-2.877-1.471-4.09h.598c.383 0 .624.29.665.531.158.832.383 1.696.857 2.62.424-.84.814-2.03.98-3.151h.474c.383 0 .524.166.524.531 0 .133-.108.674-.382 1.422zM19.954 42.946c-.615 0-.956.532-.956 1.305 0 .898.44 1.405 1.106 1.405.54 0 .914-.482.914-1.197 0-1.056-.349-1.513-1.064-1.513zm.191 3.7c-.499 0-.906-.284-1.13-.666v1.978h-.35c-.398 0-.78-.29-.78-.772v-2.71c0-1.488.664-2.52 2.244-2.52 1.188 0 2.036 1.082 2.036 2.212 0 1.438-.714 2.477-2.02 2.477zM24.95 42.954c-.64 0-.964.532-.964 1.272 0 .89.324 1.422 1.064 1.422.648 0 .964-.532.964-1.264 0-.898-.332-1.43-1.064-1.43zm.1-.997c1.347 0 2.12 1.08 2.12 2.269 0 1.347-.773 2.42-2.22 2.42-1.346 0-2.12-1.073-2.12-2.262 0-1.347.774-2.427 2.22-2.427zM31.667 46.545c-.466 0-.757-.265-.757-.748V43.97c0-.732-.398-1.023-.889-1.023-.35 0-.806.266-.806 1.056v2.543h-.366c-.524 0-.765-.29-.765-.748V40.56h.35c.531 0 .79.3.79.715v1.28c.165-.266.547-.598.971-.598 1.156 0 1.838.69 1.838 1.962v2.626h-.366zM33.604 48c-.416 0-.782-.274-.782-.69v-.216l.632-.042c.408-.024.549-.191.79-.822-.59-.89-1.438-3.118-1.588-4.174h.59c.308 0 .59.208.649.524a9.63 9.63 0 00.898 2.586c.365-.84.773-2.195.872-3.11h.483c.357 0 .523.158.523.524 0 .474-.781 2.519-.99 3-.83 1.963-1.27 2.42-2.077 2.42zM39.464 42.946c-.565 0-.99.557-.99 1.255 0 1.03.441 1.455 1.107 1.455.557 0 .955-.532.955-1.255 0-1.09-.39-1.455-1.072-1.455zm0 3.7c-1.147 0-2.111-.94-2.111-2.287V40.56h.382c.432 0 .732.25.732.774v1.304c.224-.324.606-.681 1.213-.681 1.14 0 2.012.93 2.012 2.252 0 1.347-.865 2.436-2.228 2.436zM44.56 46.645c-1.105 0-1.979-.731-1.979-2.036v-2.553h.208c.64 0 .923.275.923.799V44.5c0 .822.399 1.155.906 1.155.457 0 .781-.316.781-1.08v-2.52h.2c.648 0 .923.275.923.799v1.679c0 1.396-.657 2.111-1.962 2.111zM51.875 44.592h-.4c-.847 0-1.088.2-1.088.565 0 .35.282.557.773.557.482 0 .715-.232.715-.69v-.432zm-.607 2.028h-.224c-1.065 0-1.796-.598-1.796-1.421 0-.798.582-1.405 2.228-1.405h.39v-.058c0-.632-.299-.823-.964-.823-.806 0-1.255.307-1.422.515h-.04v-.357c0-.5.448-1.097 1.628-1.097.998 0 1.896.465 1.896 2.011v1.03c0 .948-.699 1.605-1.696 1.605zM58.94 44.01c-.298.823-.798 1.903-1.296 2.585h-.216c-.333 0-.508-.117-.732-.448-.607-.923-1.372-2.877-1.471-4.09h.598c.383 0 .624.29.665.531.158.832.383 1.696.856 2.62.425-.84.815-2.03.981-3.151h.474c.383 0 .524.166.524.531 0 .133-.108.674-.382 1.422zM61.875 42.888c-.54 0-.915.44-.94.956l-.008.15h.5c1.055 0 1.296-.117 1.296-.433 0-.449-.333-.673-.848-.673zm-.208 1.895h-.732c.084.565.6.923 1.256.923.465 0 1.014-.092 1.372-.425h.041v.35c0 .573-.39 1.014-1.621 1.014a2.212 2.212 0 01-2.203-2.253c0-1.496.914-2.435 2.195-2.435.93 0 1.795.665 1.795 1.737 0 .823-.623 1.089-2.103 1.089zM69.224 46.545h-2.187c-.515 0-.764-.24-.764-.59 0-.34.257-.773.681-1.23l1.13-1.23c.134-.15.308-.358.383-.507h-2.203v-.341c0-.333.241-.59.74-.59h2.036c.524 0 .699.316.699.573 0 .35-.183.765-.574 1.189l-1.122 1.213a3.188 3.188 0 00-.424.558h2.178v.431c0 .275-.29.524-.573.524zM72.49 42.896c-.565 0-.93.549-.93 1.272 0 .931.482 1.538 1.122 1.538.623 0 .897-.466.897-1.28 0-1.122-.49-1.53-1.089-1.53zm.058 3.75c-1.18 0-2.086-1.031-2.086-2.262 0-1.471.715-2.427 2.02-2.427.449 0 .94.316 1.114.706V40.56h.34c.533 0 .765.308.765.757v3.159c0 1.305-.615 2.17-2.153 2.17zM78.326 43.145a1.616 1.616 0 00-.649-.132c-.498 0-.772.274-.772.956v2.576h-.308c-.499 0-.815-.249-.815-.715V43.77c0-.898.474-1.754 1.654-1.754.69 0 .932.39.932.731v.4h-.042zM81.418 44.592h-.399c-.848 0-1.089.2-1.089.565 0 .35.282.557.773.557.482 0 .715-.232.715-.69v-.432zm-.607 2.028h-.224c-1.064 0-1.796-.598-1.796-1.421 0-.798.582-1.405 2.228-1.405h.391v-.058c0-.632-.3-.823-.965-.823-.806 0-1.255.307-1.421.515h-.041v-.357c0-.5.448-1.097 1.629-1.097.997 0 1.895.465 1.895 2.011v1.03c0 .948-.698 1.605-1.696 1.605zM86.638 44.01c-.299.823-.798 1.903-1.296 2.585h-.216c-.333 0-.508-.117-.732-.448-.607-.923-1.372-2.877-1.471-4.09h.598c.382 0 .624.29.665.531.158.832.383 1.696.856 2.62.424-.84.815-2.03.981-3.151h.474c.382 0 .524.166.524.531 0 .133-.108.674-.383 1.422zM89.124 46.587c-.865 0-1.338-.49-1.338-1.396v-3.035h.316c.498 0 .797.267.797.832v2.094c0 .45.192.59.682.59h.208v.242c0 .482-.191.673-.665.673zM89.1 41.2a2.69 2.69 0 01-.956.2h-.374v-.042c.183-.282.382-.557.623-.773.267-.24.466-.399.79-.399.274 0 .466.125.466.424 0 .241-.208.449-.549.59z" fill="#fff"/><path d="M92.17 17.393c-.054.43.518.628.745.258.962-1.571 2.796-3.8 5.624-3.868 3.933-.096 4.949 2.418 5.632 3.239.683.82 2.593 1.67 4.188-.013 1.594-1.684.586-7.41-7.125-7.405-5.966.002-8.717 5.04-9.064 7.789z" fill="#333E8A"/><path d="M96.23 6.232a3.168 3.168 0 11-4.698 4.252 3.168 3.168 0 014.698-4.252z" fill="#333E8A"/><path d="M107.006 9.338c-.43-.054-.628.52-.259.746 1.572.962 3.8 2.796 3.869 5.624.095 3.933-2.418 4.949-3.239 5.632-.821.683-1.671 2.593.013 4.188 1.683 1.594 7.409.586 7.405-7.125-.003-5.966-5.041-8.718-7.789-9.065z" fill="#FFB600"/><path d="M117.564 12.393a3.168 3.168 0 11-4.253-4.697 3.168 3.168 0 014.253 4.697z" fill="#FFB600"/><path d="M114.912 24.399c.054-.43-.518-.628-.745-.259-.962 1.572-2.796 3.8-5.624 3.87-3.933.095-4.949-2.419-5.632-3.24-.684-.82-2.593-1.671-4.188.013-1.595 1.684-.586 7.41 7.125 7.405 5.966-.003 8.717-5.04 9.064-7.79z" fill="#C20E1A"/><path d="M110.361 36a3.168 3.168 0 114.695-4.252A3.168 3.168 0 01110.361 36z" fill="#C20E1A"/><path d="M100.407 32.574c.432.032.6-.55.22-.757-1.62-.88-3.941-2.595-4.157-5.416-.3-3.922 2.156-5.067 2.94-5.793.785-.725 1.534-2.676-.23-4.181-1.765-1.505-7.43-.2-7.024 7.501.314 5.958 5.489 8.443 8.251 8.646zM88.18 28.161a3.168 3.168 0 114.492 4.469 3.168 3.168 0 01-4.492-4.469z" fill="#00A328"/><path d="M86.814 16.736a1.467 1.467 0 11-2.175 1.97 1.467 1.467 0 012.175-1.97z" fill="#FFB600"/><path d="M101.602.299a.909.909 0 11-1.349 1.219.909.909 0 011.349-1.22zM121.018 17.684a.908.908 0 11-1.345 1.22.908.908 0 011.345-1.22z" fill="#333E8A"/><path d="M108.313 5.005a.909.909 0 11-1.347 1.22.909.909 0 011.347-1.22zM97.882 36.181a.908.908 0 11-1.347 1.22.908.908 0 011.347-1.22zM89.315 21.683a.908.908 0 11-1.347 1.22.908.908 0 011.347-1.22z" fill="#C20E1A"/><path d="M119.622 25.793a.909.909 0 11-1.349 1.22.909.909 0 011.349-1.22z" fill="#00A328"/><path d="M105.076 37.738a.909.909 0 11-1.349 1.219.909.909 0 011.349-1.22z" fill="#FFB600"/></svg>