<svg width="136" height="63" viewBox="0 0 136 63" fill="none" xmlns="http://www.w3.org/2000/svg"><path d="M28.063 0H0v62.362h28.063V0z" fill="#D70C0F"/><path d="M31.18 0h-3.117v62.362h3.117V0z" fill="#00469B"/><path d="M13.862 20.568s-.423-.1-.523-.497c-.124-.473.224-.747.224-.747-.423-.25-.946-.649-1.419-1.021l-1.943.348c-1.718.299-2.216 1.594-.05 4.284h-2.44c-.025-.574-.174-.922-.324-1.171-.423-.673-1.021-.598-1.568-.124.298.198.498.398.697.696.199.3.299.548.324.648-.424-.348-1.171-.548-1.47-.523-.373.024-.821.373-.821 1.145 0 0 .522-.149 1.145-.05.349.05.797.2.797.2-.274.075-.573.274-.772.474-.498.497-.274.97.324 1.494.1-.35.274-.648.672-1.046.349-.35.448-.424.598-.498.385.114.76.209 1.124.284.189.497-.228 1.135-.228 1.135.696.174 1.367-.396 1.394-.943 1.324.153 2.415.058 3.113-.153l-1.394-3.188s1.668-.149 2.54-.747zM6.217 10.335l.765.746c-.116.507-.816.797-.816.797.486.535 1.326.43 1.668.032l2.142 2.085c.174-1.046.623-1.544 1.245-2.018-1.668-1.22-3.86-2.266-3.86-2.266.374-.422.524-.772.598-1.07.175-.772-.299-1.145-1.02-1.17.074.347.049.696 0 .945-.05.3-.1.474-.225.723-.05-.549-.448-1.22-.672-1.42-.274-.248-.847-.299-1.395.224 0 0 .498.3.847.772.2.274.423.723.423.723a1.824 1.824 0 00-.872-.225c-.722 0-.896.498-.846 1.296.324-.175.697-.275 1.22-.275.324 0 .573.026.798.1z" fill="#fff"/><path d="M25.217 15.614h-.987c.01-.148.016-.297.016-.448 0-1.518-.548-2.59-1.245-3.437 0 0-.523.4-.722.648.572.723.996 1.593.996 2.814 0 .141-.006.283-.017.423h-1.08c0 .299.335.82.914 1.017a7.199 7.199 0 01-1.361 2.727c-.862-1.067-1.544-2.593-1.544-4.167 0-2.091 1.17-3.163 2.415-4.209.108-.09.275-.222.468-.389.319.29.652.641.927 1.086 0 0 .697-.348.697-.92 0-.534-.58-.647-1.123-.636.549-.565 1.098-1.337 1.098-2.228 0-.921-.573-1.495-1.37-1.495-1.17 0-1.294 1.22-1.294 1.495 0 0 .298-.274.672-.274.349 0 .697.248.697.796 0 .673-.548 1.146-1.544 1.992-1.145.972-2.614 2.291-2.614 4.757 0 .151.005.3.016.448H18.12c0 .357.477 1.03 1.278 1.092.439 1.885 1.533 3.253 1.69 3.442-.161.19-.54.521-1.2.521-.65 0-1.25-.314-1.747-.97.002-.075.004-.149.004-.224 0-1.819-.648-3.91-1.694-5.156h1.818c-.025-1.046-.448-2.017-1.494-2.963h1.046c0-2.066-1.469-2.789-1.594-2.889.947-.224 1.345-.97 1.345-1.395h-4.557s-.548.623-1.519 1.021c0 .674.498 1.246.92 1.544.4-.647.898-.721 1.172-.721.423 0 .772.224.772.623 0 .298-.2.596-.548.596-.25 0-.523-.149-.897-.149-.92 0-.797.921-.797.921h1.569c.148 1.186-2.84 1.245-2.887 3.484-2.606.693-4.235 1.647-4.235 1.647-.075-.549-.25-.896-.448-1.145-.498-.623-1.071-.498-1.544.024.324.174.498.323.747.623.249.298.274.374.398.623-.448-.3-1.22-.424-1.52-.374-.372.05-.771.448-.721 1.195 0 0 .498-.15.996-.15s.947.15.947.15c-.274.075-.548.298-.723.523-.448.573-.199.996.449 1.47.074-.35.299-.798.572-1.122.15-.173.4-.422.573-.523l1.046-.142c.313.428.1 1.139.1 1.139.712-.05 1.181-.777 1.075-1.298l3.152-.427c1.086 1.367 2.846 2.302 3.169 2.471l-.947 3.263c-.398 1.37-.124 2.415.897 2.614.647.125 1.519-.099 1.519-.099l-1.146 2.291c-.498-.273-.87-.373-1.17-.373-.797 0-1.071.547-.946 1.245.348-.15.597-.2.97-.2.225 0 .449 0 .723.076-.523.173-1.096.696-1.245.945-.199.324-.125.897.498 1.32 0 0 .149-.498.573-.97.249-.274.622-.574.622-.574-.1.274-.1.647-.025.897.175.673.523.797 1.42.572-.224-.299-.374-.548-.498-1.145-.075-.324-.1-.573-.075-.796.213-.243.522-.526.868-.842.509.14.776.842.776.842.529-.457.477-1.285.092-1.656.897-.889 1.75-1.954 1.75-3.126h-2.74s.882-.787 1.243-2.434c.489.46 1.226.716 1.846.716a2.5 2.5 0 001.594-.622v1.793c.797 0 1.469-1.097.896-2.043 1.295.722 2.142-.199 2.142-.746h-1.997c.323-.418 1.212-1.677 1.594-3.333.724-.118 1.15-.739 1.15-1.076zm-11.43-7.27c-.3 0-.523-.226-.523-.698h1.27c0 .348-.4.697-.747.697z" fill="#fff"/><path d="M11.073 10.285h.847c0-.523-.523-.573-.996-.747-.4-.15-.747-.423-.747-1.121 0-.3.074-.772.498-1.12-.748 0-1.544.498-1.544 1.419 0 .747.523 1.569 1.942 1.569zM14.783 6.25H16.8l1.444-2.665c-.497-.372-1.593-.248-1.593.599 0 .299.124.498.124.747 0 .399-.324.523-.697.523-.746 0-1.02-.548-1.02-.996l.223.149c.374.249.822-.05.822-.448a.537.537 0 00-.623-.523l-.323.05.15-.324c.223-.473-.126-.747-.524-.971-.398.224-.747.498-.523.97l.15.325-.324-.05a.537.537 0 00-.623.523c0 .399.448.697.822.448l.224-.15c0 .449-.274.997-1.02.997-.374 0-.698-.124-.698-.523 0-.25.124-.448.124-.747 0-.847-1.095-.971-1.593-.599l1.444 2.665h2.017zM18.768 10.758c0 .574.697.922.697.922.274-.449 1.146-1.345 1.644-1.719-.674-.572-1.021-.996-1.021-1.544 0-.547.348-.796.697-.796.374 0 .671.274.671.274 0-.274-.123-1.495-1.293-1.495-.797 0-1.37.574-1.37 1.495 0 .896.548 1.668 1.096 2.24-.548-.024-1.121.1-1.121.623z" fill="#fff"/><path d="M46.544 14.487v-9.1h-1.287l-2.665 4.992-2.678-4.992h-1.326v9.1h1.352V7.974l2.626 4.901 2.626-4.9v6.512h1.352zM49.715 5.334h-1.508v1.508h1.508V5.334zM49.61 7.805h-1.3v6.682h1.3V7.805zM52.68 10.274c0-1.001.65-1.495 1.468-1.495.871 0 1.47.481 1.47 1.73v3.977h1.3v-4.108c0-1.872-1.002-2.704-2.406-2.704-.806 0-1.456.35-1.885 1.001v-.87h-1.248v6.681h1.3v-4.212zM59.985 7.805h-1.3v6.682h1.3V7.805zM60.088 5.334H58.58v1.508h1.508V5.334zM64.171 13.576c-1.105 0-1.456-.428-1.508-1.144h-1.3c.065 1.378 1.04 2.184 2.808 2.184 1.768 0 2.808-.87 2.808-2.04 0-1.093-.78-1.69-2.04-1.899l-.976-.169c-.767-.13-1.053-.325-1.053-.858 0-.559.455-.936 1.274-.936.975 0 1.326.43 1.379 1.144h1.3c-.066-1.352-1.002-2.184-2.692-2.184-1.638 0-2.56.923-2.56 2.041 0 1.092.753 1.651 2.027 1.86l.988.168c.715.117 1.053.351 1.053.884 0 .624-.559.95-1.508.95zM69.136 12.407c0 1.313.494 2.17 2.08 2.17.286 0 .61-.025.988-.09v-1.105a5.215 5.215 0 01-.806.078c-.715 0-.962-.3-.962-1.053V8.91h1.768V7.805h-1.768V5.646l-1.3.26v1.899h-1.378V8.91h1.378v3.497zM76.001 14.616c1.496 0 2.548-.806 2.705-2.184h-1.353c-.064.69-.584 1.131-1.352 1.131-.988 0-1.508-.61-1.547-2.067h4.317c.012-.09.012-.169.012-.247 0-2.47-1.027-3.575-2.782-3.575-1.859 0-2.886 1.105-2.886 3.471s1.027 3.471 2.886 3.471zm0-5.889c.82 0 1.326.533 1.43 1.768h-2.964c.104-1.235.611-1.768 1.534-1.768zM81.487 10.481c0-.858.455-1.573 1.678-1.573h.701V7.803a3.109 3.109 0 00-.597-.065c-.768 0-1.405.325-1.834.988v-.923h-1.248v6.682h1.3v-4.004zM87.962 10.677l-.975-.169c-.767-.13-1.053-.325-1.053-.858 0-.559.455-.936 1.273-.936.976 0 1.327.43 1.379 1.144h1.3c-.065-1.352-1.001-2.184-2.691-2.184-1.638 0-2.561.923-2.561 2.041 0 1.092.754 1.651 2.028 1.86l.988.168c.715.117 1.053.351 1.053.884 0 .624-.56.95-1.508.95-1.105 0-1.456-.43-1.508-1.145h-1.3c.065 1.378 1.04 2.184 2.808 2.184 1.768 0 2.808-.87 2.808-2.04 0-1.093-.78-1.69-2.041-1.899zM92.16 12.407c0 1.313.493 2.17 2.08 2.17.285 0 .61-.025.987-.09v-1.105a5.218 5.218 0 01-.806.078c-.715 0-.962-.3-.962-1.053V8.91h1.768V7.805H93.46V5.646l-1.3.26v1.899H90.78V8.91h1.378v3.497zM100.09 14.487l2.353-6.682h-1.339l-1.794 5.42-1.794-5.42H96.11l2.353 6.682h1.626zM105.848 14.616c1.872 0 2.9-1.105 2.9-3.471s-1.028-3.471-2.9-3.471c-1.872 0-2.899 1.105-2.899 3.471s1.027 3.471 2.899 3.471zm0-5.863c1.053 0 1.548.728 1.548 2.392s-.495 2.392-1.548 2.392-1.547-.728-1.547-2.392.494-2.392 1.547-2.392zM41.799 21.577l1.404-2.21h-1.118l-1.066 1.417-1.066-1.417h-1.144l1.404 2.21h1.586zM41.773 25.177l-.976-.169c-.767-.13-1.053-.325-1.053-.858 0-.559.455-.936 1.274-.936.975 0 1.326.43 1.379 1.144h1.3c-.066-1.352-1.002-2.184-2.692-2.184-1.638 0-2.56.923-2.56 2.041 0 1.092.753 1.651 2.027 1.86l.988.168c.715.117 1.053.351 1.053.884 0 .625-.559.95-1.508.95-1.105 0-1.456-.43-1.508-1.145h-1.3c.065 1.379 1.04 2.184 2.808 2.184 1.768 0 2.808-.87 2.808-2.04 0-1.093-.78-1.69-2.04-1.899zM51.067 28.987l-2.9-3.497 2.666-3.185h-1.417l-2.795 3.328v-6.397l-1.3.26v9.49h1.3V25.66l2.794 3.328h1.652zM54.227 29.116c1.872 0 2.9-1.105 2.9-3.471s-1.028-3.471-2.9-3.471c-1.872 0-2.899 1.105-2.899 3.471s1.027 3.471 2.9 3.471zm0-5.863c1.053 0 1.547.728 1.547 2.392s-.494 2.392-1.547 2.392-1.547-.728-1.547-2.392.494-2.392 1.547-2.392zM58.53 28.987h1.3v-9.75l-1.3.26v9.49zM64.015 29.116c1.768 0 2.808-.87 2.808-2.04 0-1.093-.78-1.69-2.04-1.899l-.976-.169c-.767-.13-1.053-.325-1.053-.858 0-.559.455-.936 1.274-.936.975 0 1.326.43 1.378 1.144h1.3c-.065-1.352-1-2.184-2.69-2.184-1.639 0-2.562.923-2.562 2.041 0 1.092.754 1.651 2.028 1.86l.988.168c.715.117 1.053.351 1.053.884 0 .625-.56.95-1.508.95-1.105 0-1.456-.43-1.508-1.145h-1.3c.065 1.379 1.04 2.184 2.808 2.184zM72.05 28.987v-1.105a5.227 5.227 0 01-.806.078c-.716 0-.963-.3-.963-1.053V23.41h1.769v-1.105H70.28v-2.159l-1.3.26v1.899h-1.377v1.105h1.377v3.497c0 1.313.495 2.17 2.08 2.17.287 0 .611-.025.989-.09zM76.912 28.987l2.353-6.682h-1.34l-1.793 5.42-1.794-5.42h-1.404l2.353 6.682h1.625zM80.266 21.577h1.144l1.43-2.21h-1.456l-1.118 2.21zM81.681 22.305h-1.3v6.682h1.3v-6.682zM84.932 28.986v-1.664h-1.664v1.664h.65l-.754 1.95h.936l.832-1.95zM97.242 28.986h1.3v-4.342c0-1.742-.975-2.47-2.158-2.47-.793 0-1.443.403-1.846 1.105-.364-.767-1.078-1.105-1.872-1.105-.676 0-1.26.338-1.664.962v-.832h-1.248v6.682h1.3v-4.355c0-.975.637-1.352 1.222-1.352.637 0 1.222.364 1.222 1.482v4.225h1.3v-4.459c0-.87.638-1.248 1.222-1.248.637 0 1.222.364 1.222 1.482v4.225zM101.61 28.987v-9.75l-1.299.26v9.49h1.299zM106.304 21.577l1.43-2.21h-1.456l-1.118 2.21h1.144zM105.459 25.138c-1.481.104-2.404.871-2.404 2.054 0 1.119.819 1.924 2.067 1.924.806 0 1.664-.325 2.223-1.13v1h1.248v-4.212c0-1.664-1.04-2.6-2.665-2.6-1.47 0-2.6.936-2.665 2.392h1.326c.052-.897.585-1.339 1.326-1.339.806 0 1.378.442 1.378 1.495v.299l-1.834.117zm1.834 1.08c0 1.377-1.04 1.846-1.898 1.846-.598 0-1.041-.352-1.041-.91 0-.586.404-.989 1.249-1.04l1.69-.13v.233zM112.531 29.117c.832 0 1.521-.377 1.963-1.17v1.04h1.248v-9.75l-1.3.26v3.627c-.455-.65-1.092-.95-1.807-.95-1.547 0-2.639 1.08-2.639 3.471 0 2.393.962 3.472 2.535 3.472zm.364-5.85c1.053 0 1.547.728 1.547 2.378 0 1.652-.494 2.38-1.547 2.38s-1.547-.728-1.547-2.38c0-1.65.494-2.378 1.547-2.378zM120.031 22.174c-1.86 0-2.886 1.105-2.886 3.471s1.026 3.471 2.886 3.471c1.495 0 2.548-.805 2.704-2.184h-1.352c-.065.69-.585 1.132-1.352 1.132-.989 0-1.509-.612-1.548-2.068h4.317c.013-.09.013-.169.013-.247 0-2.47-1.027-3.575-2.782-3.575zm-1.534 2.821c.104-1.235.61-1.768 1.534-1.768.819 0 1.326.533 1.429 1.768h-2.963zM123.854 23.41h3.458l-3.458 4.602v.975h5.044v-1.105h-3.459l3.459-4.602v-.975h-5.044v1.105zM127.169 21.577l1.405-2.21h-1.118l-1.066 1.417-1.066-1.417h-1.144l1.403 2.21h1.586zM135.606 25.749c0-2.47-1.027-3.575-2.782-3.575-1.86 0-2.886 1.105-2.886 3.471s1.026 3.471 2.886 3.471c1.495 0 2.548-.805 2.704-2.184h-1.352c-.065.69-.585 1.132-1.352 1.132-.989 0-1.509-.612-1.548-2.068h4.317c.013-.09.013-.169.013-.247zm-4.316-.754c.104-1.235.61-1.768 1.534-1.768.819 0 1.326.533 1.429 1.768h-2.963zM41.135 36.674c-1.47 0-2.6.936-2.665 2.392h1.326c.052-.897.585-1.339 1.326-1.339.806 0 1.378.442 1.378 1.495v.299l-1.833.117c-1.482.104-2.405.871-2.405 2.054 0 1.118.819 1.924 2.067 1.924.806 0 1.664-.325 2.223-1.13v1H43.8v-4.212c0-1.664-1.04-2.6-2.665-2.6zm1.365 4.043c0 1.378-1.04 1.846-1.898 1.846-.598 0-1.04-.35-1.04-.91 0-.585.403-.988 1.248-1.04l1.69-.13v.234zM50.756 34.647l-1.3.26v1.898h-1.378v1.105h1.378v3.497c0 1.313.494 2.17 2.08 2.17.286 0 .611-.025.988-.09v-1.105a5.215 5.215 0 01-.806.078c-.715 0-.962-.3-.962-1.053V37.91h1.768v-1.105h-1.768v-2.158zM56.32 36.674c-1.86 0-2.886 1.105-2.886 3.471s1.026 3.471 2.886 3.471c1.495 0 2.548-.806 2.704-2.184h-1.352c-.065.69-.585 1.131-1.352 1.131-.989 0-1.508-.61-1.547-2.067h4.316c.013-.09.013-.169.013-.247 0-2.47-1.027-3.575-2.782-3.575zm-1.534 2.821c.104-1.235.61-1.768 1.534-1.768.819 0 1.325.533 1.43 1.768h-2.964zM55.265 33.867h-1.144l1.404 2.21h1.586l1.404-2.21h-1.117l-1.067 1.417-1.066-1.417zM60.506 43.487h1.3v-9.75l-1.3.26v9.49zM66.108 36.674c-1.872 0-2.899 1.105-2.899 3.471s1.027 3.471 2.899 3.471 2.9-1.105 2.9-3.471-1.028-3.471-2.9-3.471zm0 5.863c-1.053 0-1.547-.728-1.547-2.392s.494-2.392 1.547-2.392 1.547.728 1.547 2.392-.494 2.392-1.547 2.392zM72.712 42.226l-1.794-5.421h-1.404l2.353 6.682h1.625l2.353-6.682h-1.34l-1.793 5.42zM79.888 36.077l1.43-2.21h-1.456l-1.118 2.21h1.144zM79.538 42.226l-1.794-5.421H76.34l2.496 7.085-.052.117c-.273.741-.468 1.053-1.118 1.053-.221 0-.494-.026-.806-.078v1.105c.35.065.663.104.936.104 1.131 0 1.781-.624 2.314-2.132l2.561-7.254h-1.339l-1.794 5.42zM86.075 37.753c.767 0 1.3.455 1.417 1.443h1.352c-.195-1.729-1.196-2.522-2.77-2.522-1.871 0-2.898 1.105-2.898 3.471s1.027 3.471 2.899 3.471c1.521 0 2.574-.793 2.77-2.522h-1.353c-.117.988-.65 1.443-1.417 1.443-1.053 0-1.547-.728-1.547-2.392s.494-2.392 1.547-2.392zM93.381 36.674c-.78 0-1.403.325-1.833.95v-3.888l-1.3.26v9.49h1.3v-4.211c0-1.002.65-1.495 1.47-1.495.87 0 1.468.48 1.468 1.729v3.978h1.3v-4.109c0-1.872-1-2.704-2.405-2.704zM100.09 36.674c-1.872 0-2.899 1.105-2.899 3.471s1.027 3.471 2.899 3.471 2.9-1.105 2.9-3.471-1.028-3.471-2.9-3.471zm0 5.863c-1.052 0-1.547-.728-1.547-2.392s.495-2.392 1.547-2.392c1.054 0 1.548.728 1.548 2.392s-.494 2.392-1.548 2.392zM106.694 42.226l-1.794-5.421h-1.404l2.353 6.682h1.626l2.353-6.682h-1.34l-1.794 5.42zM113.519 42.226l-1.794-5.421h-1.405l2.496 7.085-.051.117c-.273.741-.469 1.053-1.119 1.053-.221 0-.494-.026-.806-.078v1.105c.351.065.663.104.936.104 1.132 0 1.782-.624 2.314-2.132l2.562-7.254h-1.34l-1.793 5.42z" fill="#FFF"/></svg>