<svg width="102" height="48" viewBox="0 0 102 48" fill="none" xmlns="http://www.w3.org/2000/svg"><path d="M60.208 2.964L65.192 0h-1.576l-4.581 2.062L54.375 0h-1.487l5.02 2.964h2.3zm2.42 16.032c2.184-.7 3.806-1.927 4.024-3.646 0-2.426-2.838-3.397-5.633-3.975-4.057-.809-6.941-1.479-7.392-3.235a1.46 1.46 0 01-.091-.554c.09-1.895 2.75-3.073 5.185-3.073 2.478 0 4.055.321 5.632 1.803l1.353-.441c-1.757-1.57-4.146-1.987-6.985-1.987-2.36 0-4.376.396-5.833 1.105V0h-3.596l-9.161 11.89h-.088L30.704 0H27.2v14.564h1.71V1.844l10.267 12.97h-3.16v14.564h1.449v-12.72l10.39 13.125h.042l10.479-13.306v12.901h3.068v-9.682h5.423v13.583h3.156V19.696h6.533v-.7H62.628zm-1.184-.837v-3.345h-3.595l-2.94 3.816c-1.22-.317-2.303-.874-3.13-1.708l-1.488.554c.954.922 2.387 1.539 4.057 1.883l-5.66 7.344H48.6l-9.237-11.762L49.818 1.662v12.902h3.07V11.02c1.62.65 3.842 1.066 6.102 1.58 3.336.716 4.328 1.987 4.328 3.212 0 .945-.678 1.775-1.874 2.347zM.893 36.939h.733l1.942 4.173 1.97-4.173h.674v4.599H5.76l.018-4.203-1.948 4.203H3.3l-1.999-4.203.045 4.203H.893v-4.6zM7.97 36.938h.458v4.599H7.97v-4.599zM10.18 36.939h.587l3.216 4.127V36.94h.446v4.599h-.612l-3.191-4.127v4.127h-.446v-4.6zM16.186 36.938h.459v4.599h-.459v-4.599zM18.69 40.023v.024c0 .695.567 1.16 1.458 1.16.899 0 1.427-.382 1.427-.942 0-.524-.37-.656-1.147-.797l-.98-.172c-.733-.127-1.09-.509-1.09-1.146 0-.79.65-1.33 1.752-1.33 1.121 0 1.783.533 1.808 1.412h-.458c-.058-.643-.516-.992-1.338-.992-.815 0-1.293.355-1.293.885 0 .483.377.649 1.146.782l.874.153c.834.147 1.21.504 1.21 1.186 0 .878-.681 1.413-1.867 1.413-1.235 0-1.968-.611-1.968-1.567v-.07h.466zM24.861 37.36h-1.777v-.421h4.012v.42H25.32v4.178h-.459V37.36zM28.287 36.939h3.535v.428h-3.075v1.612h2.84v.432h-2.84v1.694h3.075v.433h-3.535v-4.6zM33.3 36.939h2.205c1.095 0 1.65.414 1.65 1.236 0 .605-.243.962-.797 1.147.523.083.643.325.707.873.07.61.032 1.076.223 1.343h-.536c-.14-.42-.101-.878-.159-1.343-.057-.473-.325-.632-.898-.632H33.76v1.975h-.46v-4.6zm.46.428v1.764h1.694c.847 0 1.235-.236 1.235-.885 0-.683-.407-.88-1.293-.88H33.76zM39.052 40.023v.024c0 .695.567 1.16 1.459 1.16.897 0 1.426-.382 1.426-.942 0-.524-.369-.656-1.147-.797l-.98-.172c-.733-.127-1.09-.509-1.09-1.146 0-.79.65-1.33 1.752-1.33 1.121 0 1.784.533 1.809 1.412h-.459c-.057-.643-.515-.992-1.337-.992-.816 0-1.293.355-1.293.885 0 .483.376.649 1.146.782l.873.153c.834.147 1.21.504 1.21 1.186 0 .878-.68 1.413-1.866 1.413-1.236 0-1.967-.611-1.967-1.567v-.07h.464zM45.224 37.36h-1.778v-.421h4.013v.42h-1.777v4.178h-.458V37.36zM48.142 36.939h.502l1.847 4.204 1.847-4.204h.504l-2.064 4.599h-.58l-2.056-4.6zM56.122 41.66c-1.51 0-2.413-.924-2.413-2.422 0-1.495.903-2.419 2.413-2.419 1.51 0 2.42.924 2.42 2.419 0 1.498-.91 2.421-2.42 2.421zm1.949-2.422c0-1.235-.733-1.974-1.949-1.974-1.216 0-1.949.74-1.949 1.974 0 1.236.733 1.975 1.95 1.975 1.215 0 1.948-.739 1.948-1.975zM63.033 40.023v.024c0 .695.566 1.16 1.458 1.16.899 0 1.426-.382 1.426-.942 0-.524-.37-.656-1.145-.797l-.981-.172c-.732-.127-1.089-.509-1.089-1.146 0-.79.65-1.33 1.752-1.33 1.12 0 1.783.533 1.809 1.412h-.46c-.057-.643-.516-.992-1.338-.992-.814 0-1.293.355-1.293.885 0 .483.376.649 1.147.782l.873.153c.835.147 1.21.504 1.21 1.186 0 .878-.68 1.413-1.867 1.413-1.235 0-1.967-.611-1.967-1.567v-.07h.465zm2.082-4.491h.492l-.887.943h-.522l-.885-.943h.49l.656.681.656-.681zM67.956 36.939h.459v2.517l2.846-2.517h.637l-2.165 1.924 2.165 2.675h-.586l-1.923-2.375-.974.853v1.522h-.46v-4.6zM75.09 41.66c-1.51 0-2.413-.924-2.413-2.422 0-1.495.903-2.419 2.413-2.419 1.51 0 2.42.924 2.42 2.419 0 1.498-.91 2.421-2.42 2.421zm1.949-2.422c0-1.235-.734-1.974-1.95-1.974s-1.948.74-1.948 1.974c0 1.236.732 1.975 1.949 1.975 1.215 0 1.949-.739 1.949-1.975zM79.007 36.939h.459v4.166h2.892v.433h-3.35v-4.6zM84.007 40.023v.024c0 .695.567 1.16 1.459 1.16.898 0 1.427-.382 1.427-.942 0-.524-.37-.656-1.147-.797l-.98-.172c-.733-.127-1.09-.509-1.09-1.146 0-.79.649-1.33 1.751-1.33 1.121 0 1.785.533 1.809 1.412h-.459c-.056-.643-.515-.992-1.337-.992-.815 0-1.293.355-1.293.885 0 .483.376.649 1.147.782l.872.153c.835.147 1.21.504 1.21 1.186 0 .878-.68 1.413-1.865 1.413-1.236 0-1.969-.611-1.969-1.567v-.07h.465zM90.18 37.36h-1.778v-.421h4.012v.42h-1.776v4.178h-.459V37.36zM93.096 36.939h.504l1.847 4.204 1.847-4.204h.502l-2.064 4.599h-.579l-2.057-4.6zM99.039 36.938h.459v4.599h-.46v-4.599zm.599-1.406h.579l-.752.943h-.376l.549-.943zM101.483 40.977H102v.746c0 .446-.115.676-.517.81v-.295c.174-.088.23-.216.23-.426v-.275h-.23v-.56zM8.677 44.081h.608l1.613 3.464 1.633-3.464h.56V47.9h-.376l.017-3.49-1.618 3.49h-.44l-1.66-3.49.038 3.49h-.375V44.08zM14.419 44.081h.38v3.459h2.4v.36h-2.78V44.08zM19.573 44.081h.44l1.74 3.819h-.387l-.533-1.18h-2.089l-.54 1.18h-.392l1.761-3.819zm1.09 2.27L19.79 44.4l-.878 1.95h1.75zm-.582-3.438h.482l-.624.783h-.313l.455-.782zM25.627 44.426c.423.327.614.84.614 1.564 0 .725-.19 1.239-.614 1.567-.391.3-.882.342-1.565.342h-1.39v-3.818h1.39c.683 0 1.174.043 1.565.345zm-2.575 0v3.109h1.01c.546 0 .941-.037 1.253-.244.376-.248.534-.677.534-1.326 0-.635-.169-1.058-.534-1.301-.322-.212-.745-.238-1.338-.238h-.925zM27.377 44.081h2.934v.355h-2.553v1.338h2.358v.36h-2.358v1.406h2.553v.36h-2.934V44.08zM31.152 47.524l2.808-3.088h-2.67v-.355h3.199v.355l-2.861 3.088h2.86v.376h-3.336v-.376zm2.427-4.61h.407l-.734.782h-.434l-.735-.783h.407l.545.566.544-.566zM35.535 44.081h2.934v.355h-2.553v1.338h2.358v.36h-2.358v1.406h2.553v.36h-2.934V44.08zM43.08 44.081h.439l1.74 3.819h-.386l-.534-1.18h-2.09l-.538 1.18h-.392l1.761-3.819zm1.09 2.27l-.873-1.951-.878 1.95h1.75zM49.351 44.43h-1.475v-.349h3.331v.35h-1.476V47.9h-.38v-3.47zM52.09 44.081h2.935v.355H52.47v1.338h2.357v.36H52.47v1.406h2.555v.36H52.09V44.08zm2.04-1.168h.409l-.736.783h-.433l-.735-.782h.406l.545.566.545-.566zM56.146 44.081h.38v3.459h2.4v.36h-2.78V44.08zM61.374 48c-1.253 0-2.004-.767-2.004-2.009s.75-2.01 2.004-2.01c1.253 0 2.01.768 2.01 2.01 0 1.242-.757 2.009-2.01 2.009zm1.618-2.009c0-1.026-.608-1.64-1.618-1.64-1.01 0-1.617.614-1.617 1.64 0 1.026.608 1.64 1.617 1.64 1.01 0 1.618-.614 1.618-1.64zM63.997 44.081h.416l1.535 3.49 1.532-3.49h.419L66.186 47.9h-.482l-1.707-3.819zM70.056 46.25L68.41 44.08h.486l1.35 1.862 1.362-1.862h.472l-1.644 2.169v1.65h-.381v-1.65zm.555-3.337h.48l-.623.783h-.313l.456-.783zM74.835 44.351c-1 0-1.612.62-1.612 1.64 0 1.01.612 1.634 1.537 1.634.769 0 1.354-.445 1.507-1.159h.409C76.5 47.407 75.77 48 74.772 48c-1.17 0-1.936-.782-1.936-2.01 0-1.242.75-2.008 2.005-2.008.994 0 1.649.512 1.77 1.348h-.385c-.149-.624-.645-.979-1.391-.979zM77.727 44.081h.381v1.592h2.485v-1.592h.38V47.9h-.38v-1.862h-2.485V47.9h-.38V44.08zM84.12 48c-1.255 0-2.005-.767-2.005-2.009s.75-2.01 2.005-2.01c1.252 0 2.008.768 2.008 2.01 0 1.242-.756 2.009-2.008 2.009zm1.617-2.009c0-1.026-.607-1.64-1.617-1.64s-1.618.614-1.618 1.64c0 1.026.608 1.64 1.618 1.64 1.01 0 1.617-.614 1.617-1.64zM86.742 44.081h.417l1.534 3.49 1.534-3.49h.417L88.93 47.9h-.482l-1.707-3.819zM92.801 46.25l-1.645-2.169h.486l1.349 1.862 1.365-1.862h.47l-1.644 2.169v1.65h-.38v-1.65z" fill="#fff"/></svg>