<svg width="59" height="48" viewBox="0 0 59 48" fill="none" xmlns="http://www.w3.org/2000/svg"><g clip-path="url(#clip0_16547_1054)"><path d="M1.325 40.46c-.213-.5-.422-.85-.623-1.052-.2-.2-.436-.318-.702-.354v-.268c.036 0 .123-.005.261-.014.14-.009.24-.013.303-.013.232 0 .47.018.716.054.245.036.484.111.716.227.232.116.452.287.664.51.209.222.395.527.557.91L5.34 45.47l2.835-6.576h.67l-3.857 8.973H4.45L1.33 40.46h-.005zM9.687 38.895h1.741v7.096c0 .403.057.725.168.97.112.246.369.369.771.369h.134v.402h-1.607c-.232 0-.428-.027-.582-.08a.74.74 0 01-.375-.281 1.26 1.26 0 01-.193-.537 5.386 5.386 0 01-.055-.843v-7.096h-.002zM20.356 41.747c-.17-.812-.48-1.437-.932-1.868-.45-.434-1.048-.65-1.79-.65a3.25 3.25 0 00-1.152.2c-.357.134-.67.363-.939.688-.268.325-.477.76-.63 1.3-.152.541-.227 1.216-.227 2.03 0 .508.055 1.001.161 1.479.107.477.28.9.516 1.265.237.366.541.66.912.877.37.218.823.328 1.36.328.615 0 1.188-.164 1.714-.489.527-.325.95-.802 1.273-1.427l.468.361c-.42.741-.934 1.286-1.541 1.634-.607.348-1.38.523-2.32.523-.704 0-1.331-.116-1.882-.348a3.889 3.889 0 01-1.386-.963 4.2 4.2 0 01-.857-1.446 5.358 5.358 0 01-.296-1.795c0-.68.111-1.31.334-1.895a4.796 4.796 0 01.926-1.527c.393-.434.859-.775 1.4-1.025a4.148 4.148 0 011.762-.375c.839 0 1.516.11 2.03.328.514.218.896.47 1.146.756.18.232.282.532.309.898.027.366.04.745.04 1.138h-.402l.003.003zM28.899 38.895v.602h-2.8v8.235h-1.742v-8.235h-.95c-.473 0-.849.118-1.126.355-.277.236-.416.654-.416 1.252h-.402v-1.139c0-.134.016-.266.047-.395a.789.789 0 01.176-.341.91.91 0 01.347-.24 1.49 1.49 0 01.569-.094h6.297zM35.644 43.315c0-1.305-.223-2.311-.67-3.02-.448-.71-1.078-1.064-1.89-1.064-.811 0-1.441.355-1.882 1.064-.441.709-.664 1.715-.664 3.02 0 1.304.22 2.31.664 3.02.443.708 1.068 1.065 1.882 1.065.814 0 1.441-.354 1.89-1.066.445-.709.67-1.715.67-3.02zm-6.98 0c0-.662.105-1.277.317-1.848.209-.57.509-1.066.898-1.486.388-.42.852-.75 1.393-.99.541-.242 1.146-.362 1.817-.362.67 0 1.275.12 1.816.361.541.241 1.003.57 1.387.991.384.42.682.916.891 1.486.21.57.316 1.189.316 1.848s-.105 1.277-.316 1.847a4.402 4.402 0 01-.891 1.486c-.384.42-.846.75-1.387.99-.54.242-1.146.362-1.816.362-.67 0-1.276-.12-1.817-.361a4.198 4.198 0 01-1.393-.991 4.387 4.387 0 01-.898-1.486 5.324 5.324 0 01-.316-1.847zM41.511 39.431c-.106 0-.213.005-.32.014-.107.009-.2.023-.282.04a3.713 3.713 0 01-.268.042v3.629h.805c.213 0 .43-.032.643-.094a1.548 1.548 0 001.005-.884c.107-.24.161-.536.161-.883 0-.348-.054-.641-.161-.878a1.618 1.618 0 00-.416-.575 1.507 1.507 0 00-.564-.313 2.1 2.1 0 00-.602-.093m-.335 4.254h-.536v4.044h-1.755v-7.096c0-.402-.057-.725-.168-.97-.112-.246-.369-.369-.771-.369h-.134v-.402h3.698c.214 0 .45.01.71.027.259.019.523.06.79.12.27.065.53.15.785.262.255.111.48.26.678.441.195.184.354.407.475.67.12.264.182.578.182.943 0 .366-.066.65-.194.905-.13.254-.3.468-.509.643-.209.175-.443.313-.702.422-.26.107-.514.194-.764.255l1.407 2.343c.17.286.332.52.489.702.157.184.307.327.448.434.143.107.275.186.395.234.12.05.23.082.328.1v.334c-.07.036-.198.066-.382.093a3.6 3.6 0 01-.53.04c-.232 0-.457-.03-.677-.092a2.079 2.079 0 01-.644-.32 3.585 3.585 0 01-.63-.603 7.646 7.646 0 01-.65-.925l-1.339-2.235zM46.665 38.895h1.742v7.096c0 .403.054.725.168.97.111.246.368.369.77.369h.135v.402h-1.608c-.231 0-.427-.027-.582-.08a.74.74 0 01-.375-.281 1.26 1.26 0 01-.193-.537 5.383 5.383 0 01-.055-.843v-7.096h-.002zM51.987 44.694h3.044l-1.482-3.495-1.562 3.495zm5.5 1.352c.16.393.356.704.588.938.232.232.5.366.805.402v.334a3.29 3.29 0 01-.643.068c-.214 0-.446-.02-.69-.06a2.486 2.486 0 01-.722-.242 2.434 2.434 0 01-.67-.522c-.21-.227-.396-.534-.558-.918l-.309-.75h-3.583L50.6 47.734h-.67l3.953-8.84h.603l3 7.152z" fill="#fff"/><path d="M16.723 2.102a.1.1 0 00.02.116.1.1 0 00.116.013c2.123-1.247 3.287 1.839 3.785 2.754 1.519 2.8 2.644 1.993 3.542 4.75.014.04.05.07.093.075a.113.113 0 00.107-.055 5.941 5.941 0 011.028-1.363c1.491-1.457 2.591-.689 5.801-3.972 2.222-2.273 4.19-4.02 8.228-1.893.036.02.082.013.111-.016a.102.102 0 00.023-.111C39.1 1.33 37.854.139 36.203.02c-2.237-.159-4.526.743-6.863 3.023-2.162 2.11-3.165 2.635-4.613 2.635-2.034 0-2.814-2.535-3.603-3.615-1.328-1.818-3.676-1.436-4.403.041M26.642 13.843a4.198 4.198 0 01-2.269-2.243.106.106 0 00-.096-.066.112.112 0 00-.102.06 5.132 5.132 0 01-2.085 2.104.107.107 0 00-.057.093c0 .038.019.075.05.095a5.107 5.107 0 011.921 2.234.113.113 0 00.1.066.11.11 0 00.1-.064 3.77 3.77 0 012.423-2.07.11.11 0 00.08-.1.112.112 0 00-.068-.11M26.567 9.764l-.096.084a.32.32 0 00-.11.23.321.321 0 00.092.238 2.536 2.536 0 003.462.18 2.528 2.528 0 00.719-2.87.324.324 0 00-.43-.177c-.428.188-.846.4-1.255.629a.786.786 0 11-1.11.716v-.02c-.443.306-.87.638-1.275.992M20.83 8.078a9.453 9.453 0 00-.854-.618.203.203 0 00-.302.114c-.298 1.01-.11 2.2.486 2.922.03.036.061.07.093.104.694.734 1.637.632 2.246-.18a.539.539 0 00.098-.329.525.525 0 00-.104-.325c-.282-.354-.58-.686-.89-.993v.02c0 .435-.245.787-.547.787-.303 0-.548-.352-.548-.786 0-.318.132-.593.323-.716z" fill="#F49800"/><path d="M23.645 25.348c-2.837-2.836-6.195-7.824-4.099-10.521.269-.373.748-.764 1.308-1a.061.061 0 00.036-.061.058.058 0 00-.05-.053c-1.4-.243-2.537-1.456-2.762-2.54-.516-2.488 1.366-5.442.3-7.665a.07.07 0 00-.128 0c-.795 1.791-1.418 4.152-1.62 5.565-.091.637-.15 1.136-.114 1.684 0 .016.002.034.005.05l-4.972.377a1.1 1.1 0 00-1.016 1.139c.068 1.708.534 3.44 1.38 4.996 1.193 2.214 3.432 4.19 6.183 5.204.055.02.116 0 .145-.052a.12.12 0 00-.027-.152c-.71-.584-1.975-1.714-2.905-3.034.207-.289.673-1.011.91-1.527a.108.108 0 00-.026-.125.114.114 0 00-.127-.018c-.268.139-.528.309-.762.484a.77.77 0 01-1.064-.141 9.215 9.215 0 01-.436-.602c.427-.316.937-.746 1.266-1.2a.11.11 0 00-.107-.173c-.345.06-.7.166-1.016.284a.77.77 0 01-.97-.409 9.975 9.975 0 01-.33-.843c.87-.309 1.384-.63 1.636-.813a.11.11 0 00.041-.116.112.112 0 00-.093-.082 5.816 5.816 0 00-1.173-.011.767.767 0 01-.82-.648c-.03-.195-.055-.39-.073-.586l4.722-.36c.265.59.697 1.13 1.38 1.648-1.15 1.439-1.24 2.852-.8 4.634.772 3.13 3.496 6.471 5.828 8.564v.002c1.341 1.218 1.744 2.859 1.357 4.352a4.328 4.328 0 01-3.387 3.174.07.07 0 000 .139c1.13.24 2.421.022 3.46-.819.589-.472.948-1.081 1.212-1.788 1.507-3.94-2.069-6.735-2.299-6.964M27.855 13.963a.046.046 0 00-.045.039.043.043 0 00.034.048c3.974.96 9.416-.03 5.888-10.087a.075.075 0 00-.059-.048.074.074 0 00-.068.032c-.684 1.104-.57 2.075-.414 2.918v.006c.93 5.829-1.541 7.151-5.338 7.09" fill="#F49800"/><path d="M28.522 30.751c-.08-1.836.57-3.17 1.264-4.081.938-1.234 3.032-2.416 5.01-6.033a18.226 18.226 0 001.985-5.783c.732-4.45-.48-8.71-1.844-11.518-.03-.06-.1-.087-.161-.06a.123.123 0 00-.064.16c1.328 3.29 1.932 7.273 1.289 10.92-1.262 7.158-5.645 10.205-6.62 11.437-2.724 3.431-1.796 7.742 1.068 9.178a.071.071 0 00.091-.025.07.07 0 00-.018-.093c-1.207-.92-1.928-2.357-2.003-4.102" fill="#F49800"/><path d="M50.048 9.82a1.098 1.098 0 00-1.141-1.393c-2.808.215-7.577.585-9.535.737-.347-2.822-1.473-5.412-3.405-6.305a.07.07 0 00-.082.015.073.073 0 00-.011.082c2.516 4.683 2.846 9.99 1.352 14.713-.009.03 0 .064.03.08a.065.065 0 00.084-.007c1.478-1.288 2.2-4.11 2.144-6.978l8.788-.666c-.186.57-.4 1.132-.64 1.682a1.097 1.097 0 01-1.196.638c-1.121-.198-1.876-.159-2.233-.118a.11.11 0 00-.054.195c.316.253 1.075.762 2.482 1.232-.218.368-.468.761-.743 1.154-.31.443-.896.593-1.38.357-.839-.409-1.455-.57-1.767-.634a.108.108 0 00-.111.166c.202.318.718.988 1.878 1.854-.243.27-.491.532-.748.786-.405.4-1.046.423-1.48.057a7.137 7.137 0 00-1.257-.872.11.11 0 00-.157.131c.118.364.43 1.127 1.189 2.168-.33.252-.669.493-1.016.723a1.1 1.1 0 01-1.521-.31 6.255 6.255 0 00-.762-.956.11.11 0 00-.118-.025.111.111 0 00-.07.098c-.014.35.025 1.113.43 2.354-.353.17-.712.332-1.076.48a.865.865 0 01-1.182-.684 5.117 5.117 0 00-.178-.812.074.074 0 00-.063-.05c-.03 0-.057.014-.068.041a18.624 18.624 0 01-4.91 6.567c-1.676 1.49-2.283 3.806-1.633 5.847a4.144 4.144 0 004.549 2.86.066.066 0 00.059-.065.074.074 0 00-.052-.073c-1.56-.405-2.824-1.654-3.167-3.395-.273-1.459.157-2.94 1.548-4.183 1.562-1.386 2.908-3.07 3.294-3.75a19.738 19.738 0 0013.922-13.74" fill="#F49800"/></g><defs><clipPath id="clip0_16547_1054"><path fill="#fff" d="M0 0h58.88v48H0z"/></clipPath></defs></svg>